<?xml version="1.0" encoding="UTF-8" standalone="no"?>
<!DOCTYPE svg PUBLIC "-//W3C//DTD SVG 1.1//EN"
 "http://www.w3.org/Graphics/SVG/1.1/DTD/svg11.dtd">
<!-- Generated by graphviz version 14.1.3 (20260303.0454)
 -->
<!-- Pages: 1 -->
<svg width="196pt" height="279pt"
 viewBox="0.00 0.00 196.00 279.00" xmlns="http://www.w3.org/2000/svg" xmlns:xlink="http://www.w3.org/1999/xlink">
<g id="graph0" class="graph" transform="scale(1 1) rotate(0) translate(4 275)">
<polygon fill="white" stroke="none" points="-4,4 -4,-275 191.52,-275 191.52,4 -4,4"/>
<g id="clust3" class="cluster">
<title>cluster_associated</title>
</g>
<!-- Location -->
<g id="node1" class="node">
<title>Location</title>
<g id="a_node1"><a xlink:href="../Location" xlink:title="&lt;TABLE&gt;">
<polygon fill="lightgray" stroke="none" points="70.12,-244.88 70.12,-261.12 117.88,-261.12 117.88,-244.88 70.12,-244.88"/>
<text xml:space="preserve" text-anchor="start" x="71.12" y="-248.88" font-family="Arial" font-size="12.00">Location</text>
<polygon fill="none" stroke="black" points="69.12,-243.88 69.12,-262.12 118.88,-262.12 118.88,-243.88 69.12,-243.88"/>
</a>
</g>
</g>
<!-- AddressLocation -->
<g id="node2" class="node">
<title>AddressLocation</title>
<g id="a_node2"><a xlink:href="../AddressLocation" xlink:title="&lt;TABLE&gt;">
<polygon fill="lightgray" stroke="none" points="48,-171.88 48,-188.12 140,-188.12 140,-171.88 48,-171.88"/>
<text xml:space="preserve" text-anchor="start" x="49" y="-175.88" font-family="Arial" font-size="12.00">AddressLocation</text>
<polygon fill="none" stroke="black" points="47,-170.88 47,-189.12 141,-189.12 141,-170.88 47,-170.88"/>
</a>
</g>
</g>
<!-- AddressLocation&#45;&gt;Location -->
<g id="edge1" class="edge">
<title>AddressLocation&#45;&gt;Location</title>
<path fill="none" stroke="black" d="M94,-197.71C94,-205.47 94,-214.92 94,-223.74"/>
<polygon fill="none" stroke="black" points="90.5,-223.66 94,-233.66 97.5,-223.66 90.5,-223.66"/>
</g>
<!-- Invis -->
<!-- AddressLocation&#45;&gt;Invis -->
<!-- schema1_PostalAddress -->
<g id="node4" class="node">
<title>schema1_PostalAddress</title>
<g id="a_node4"><a xlink:href="https://w3id.org/citydata/imported/schema1/latest/PostalAddress" xlink:title="&lt;TABLE&gt;">
<polygon fill="lightgray" stroke="none" points="17.12,-25.88 17.12,-42.12 148.88,-42.12 148.88,-25.88 17.12,-25.88"/>
<text xml:space="preserve" text-anchor="start" x="18.12" y="-29.88" font-family="Arial" font-size="12.00">schema1:PostalAddress</text>
<polygon fill="none" stroke="black" points="16.12,-24.88 16.12,-43.12 149.88,-43.12 149.88,-24.88 16.12,-24.88"/>
</a>
</g>
</g>
<!-- AddressLocation&#45;&gt;schema1_PostalAddress -->
<g id="edge4" class="edge">
<title>AddressLocation&#45;&gt;schema1_PostalAddress</title>
<path fill="none" stroke="black" d="M96.24,-162.43C97.31,-153.69 98.47,-142.79 99,-133 100.06,-113.47 101.81,-108.35 99,-89 97.73,-80.22 95.35,-70.88 92.8,-62.48"/>
<polygon fill="black" stroke="black" points="96.2,-61.62 89.79,-53.18 89.54,-63.78 96.2,-61.62"/>
<text xml:space="preserve" text-anchor="middle" x="144.02" y="-110.05" font-family="Arial" font-size="11.00">hasPostalAddress</text>
<text xml:space="preserve" text-anchor="middle" x="144.02" y="-96.55" font-family="Arial" font-size="11.00">1</text>
</g>
<!-- Invis&#45;&gt;schema1_PostalAddress -->
</g>
</svg>
