<?xml version="1.0" encoding="UTF-8" standalone="no"?>
<!DOCTYPE svg PUBLIC "-//W3C//DTD SVG 1.1//EN"
 "http://www.w3.org/Graphics/SVG/1.1/DTD/svg11.dtd">
<!-- Generated by graphviz version 14.1.3 (20260303.0454)
 -->
<!-- Pages: 1 -->
<svg width="191pt" height="279pt"
 viewBox="0.00 0.00 191.00 279.00" xmlns="http://www.w3.org/2000/svg" xmlns:xlink="http://www.w3.org/1999/xlink">
<g id="graph0" class="graph" transform="scale(1 1) rotate(0) translate(4 275)">
<polygon fill="white" stroke="none" points="-4,4 -4,-275 186.97,-275 186.97,4 -4,4"/>
<g id="clust3" class="cluster">
<title>cluster_associated</title>
</g>
<!-- AreaRepresentation -->
<g id="node1" class="node">
<title>AreaRepresentation</title>
<g id="a_node1"><a xlink:href="../AreaRepresentation" xlink:title="&lt;TABLE&gt;">
<polygon fill="lightgray" stroke="none" points="26.38,-244.88 26.38,-261.12 135.62,-261.12 135.62,-244.88 26.38,-244.88"/>
<text xml:space="preserve" text-anchor="start" x="27.38" y="-248.88" font-family="Arial" font-size="12.00">AreaRepresentation</text>
<polygon fill="none" stroke="black" points="25.38,-243.88 25.38,-262.12 136.62,-262.12 136.62,-243.88 25.38,-243.88"/>
</a>
</g>
</g>
<!-- AreaByLinearBoundaries -->
<g id="node2" class="node">
<title>AreaByLinearBoundaries</title>
<g id="a_node2"><a xlink:href="../AreaByLinearBoundaries" xlink:title="&lt;TABLE&gt;">
<polygon fill="lightgray" stroke="none" points="12.5,-171.88 12.5,-188.12 149.5,-188.12 149.5,-171.88 12.5,-171.88"/>
<text xml:space="preserve" text-anchor="start" x="13.5" y="-175.88" font-family="Arial" font-size="12.00">AreaByLinearBoundaries</text>
<polygon fill="none" stroke="black" points="11.5,-170.88 11.5,-189.12 150.5,-189.12 150.5,-170.88 11.5,-170.88"/>
</a>
</g>
</g>
<!-- AreaByLinearBoundaries&#45;&gt;AreaRepresentation -->
<g id="edge1" class="edge">
<title>AreaByLinearBoundaries&#45;&gt;AreaRepresentation</title>
<path fill="none" stroke="black" d="M81,-197.71C81,-205.47 81,-214.92 81,-223.74"/>
<polygon fill="none" stroke="black" points="77.5,-223.66 81,-233.66 84.5,-223.66 77.5,-223.66"/>
</g>
<!-- Invis -->
<!-- AreaByLinearBoundaries&#45;&gt;Invis -->
<!-- LinearLocation -->
<g id="node4" class="node">
<title>LinearLocation</title>
<g id="a_node4"><a xlink:href="../LinearLocation" xlink:title="&lt;TABLE&gt;">
<polygon fill="lightgray" stroke="none" points="17.25,-25.88 17.25,-42.12 98.75,-42.12 98.75,-25.88 17.25,-25.88"/>
<text xml:space="preserve" text-anchor="start" x="18.25" y="-29.88" font-family="Arial" font-size="12.00">LinearLocation</text>
<polygon fill="none" stroke="black" points="16.25,-24.88 16.25,-43.12 99.75,-43.12 99.75,-24.88 16.25,-24.88"/>
</a>
</g>
</g>
<!-- AreaByLinearBoundaries&#45;&gt;LinearLocation -->
<g id="edge4" class="edge">
<title>AreaByLinearBoundaries&#45;&gt;LinearLocation</title>
<path fill="none" stroke="black" d="M84.83,-162.14C88.32,-143.86 92.08,-113.93 86,-89 83.71,-79.62 79.49,-70.06 75,-61.63"/>
<polygon fill="black" stroke="black" points="78.06,-59.93 70.06,-52.99 71.99,-63.41 78.06,-59.93"/>
<text xml:space="preserve" text-anchor="middle" x="136.1" y="-110.05" font-family="Arial" font-size="11.00">hasLinearBoundary</text>
<text xml:space="preserve" text-anchor="middle" x="136.1" y="-96.55" font-family="Arial" font-size="11.00">1..*</text>
</g>
<!-- Invis&#45;&gt;LinearLocation -->
</g>
</svg>
