<?xml version="1.0" encoding="UTF-8" standalone="no"?>
<!DOCTYPE svg PUBLIC "-//W3C//DTD SVG 1.1//EN"
 "http://www.w3.org/Graphics/SVG/1.1/DTD/svg11.dtd">
<!-- Generated by graphviz version 14.1.3 (20260303.0454)
 -->
<!-- Pages: 1 -->
<svg width="245pt" height="132pt"
 viewBox="0.00 0.00 245.00 132.00" xmlns="http://www.w3.org/2000/svg" xmlns:xlink="http://www.w3.org/1999/xlink">
<g id="graph0" class="graph" transform="scale(1 1) rotate(0) translate(4 128)">
<polygon fill="white" stroke="none" points="-4,4 -4,-128 240.62,-128 240.62,4 -4,4"/>
<g id="clust3" class="cluster">
<title>cluster_associated</title>
</g>
<!-- AreaRepresentation -->
<g id="node1" class="node">
<title>AreaRepresentation</title>
<g id="a_node1"><a xlink:href="../AreaRepresentation" xlink:title="&lt;TABLE&gt;">
<polygon fill="lightgray" stroke="none" points="1,-97.88 1,-114.12 110.25,-114.12 110.25,-97.88 1,-97.88"/>
<text xml:space="preserve" text-anchor="start" x="2" y="-101.88" font-family="Arial" font-size="12.00">AreaRepresentation</text>
<polygon fill="none" stroke="black" points="0,-96.88 0,-115.12 111.25,-115.12 111.25,-96.88 0,-96.88"/>
</a>
</g>
</g>
<!-- LocationCode -->
<g id="node2" class="node">
<title>LocationCode</title>
<g id="a_node2"><a xlink:href="../LocationCode" xlink:title="&lt;TABLE&gt;">
<polygon fill="lightgray" stroke="none" points="130.12,-97.88 130.12,-114.12 207.12,-114.12 207.12,-97.88 130.12,-97.88"/>
<text xml:space="preserve" text-anchor="start" x="131.12" y="-101.88" font-family="Arial" font-size="12.00">LocationCode</text>
<polygon fill="none" stroke="black" points="129.12,-96.88 129.12,-115.12 208.12,-115.12 208.12,-96.88 129.12,-96.88"/>
</a>
</g>
</g>
<!-- AreaByCode -->
<g id="node3" class="node">
<title>AreaByCode</title>
<g id="a_node3"><a xlink:href="../AreaByCode" xlink:title="&lt;TABLE&gt;">
<polygon fill="lightgray" stroke="none" points="76.12,-25.88 76.12,-42.12 147.12,-42.12 147.12,-25.88 76.12,-25.88"/>
<text xml:space="preserve" text-anchor="start" x="77.12" y="-29.88" font-family="Arial" font-size="12.00">AreaByCode</text>
<polygon fill="none" stroke="black" points="75.12,-24.88 75.12,-43.12 148.12,-43.12 148.12,-24.88 75.12,-24.88"/>
</a>
</g>
</g>
<!-- AreaByCode&#45;&gt;AreaRepresentation -->
<g id="edge1" class="edge">
<title>AreaByCode&#45;&gt;AreaRepresentation</title>
<path fill="none" stroke="black" d="M98.19,-51.79C91.61,-60.02 83.53,-70.11 76.19,-79.29"/>
<polygon fill="none" stroke="black" points="73.64,-76.88 70.13,-86.87 79.11,-81.25 73.64,-76.88"/>
</g>
<!-- AreaByCode&#45;&gt;LocationCode -->
<g id="edge2" class="edge">
<title>AreaByCode&#45;&gt;LocationCode</title>
<path fill="none" stroke="black" d="M125.3,-51.79C132,-60.02 140.22,-70.11 147.69,-79.29"/>
<polygon fill="none" stroke="black" points="144.84,-81.34 153.87,-86.88 150.27,-76.92 144.84,-81.34"/>
</g>
<!-- Invis -->
</g>
</svg>
