<?xml version="1.0" encoding="UTF-8" standalone="no"?>
<!DOCTYPE svg PUBLIC "-//W3C//DTD SVG 1.1//EN"
 "http://www.w3.org/Graphics/SVG/1.1/DTD/svg11.dtd">
<!-- Generated by graphviz version 14.1.3 (20260303.0454)
 -->
<!-- Pages: 1 -->
<svg width="385pt" height="279pt"
 viewBox="0.00 0.00 385.00 279.00" xmlns="http://www.w3.org/2000/svg" xmlns:xlink="http://www.w3.org/1999/xlink">
<g id="graph0" class="graph" transform="scale(1 1) rotate(0) translate(4 275)">
<polygon fill="white" stroke="none" points="-4,4 -4,-275 381.16,-275 381.16,4 -4,4"/>
<g id="clust3" class="cluster">
<title>cluster_associated</title>
</g>
<!-- Location -->
<g id="node1" class="node">
<title>Location</title>
<g id="a_node1"><a xlink:href="../Location" xlink:title="&lt;TABLE&gt;">
<polygon fill="lightgray" stroke="none" points="82.12,-244.88 82.12,-261.12 129.88,-261.12 129.88,-244.88 82.12,-244.88"/>
<text xml:space="preserve" text-anchor="start" x="83.12" y="-248.88" font-family="Arial" font-size="12.00">Location</text>
<polygon fill="none" stroke="black" points="81.12,-243.88 81.12,-262.12 130.88,-262.12 130.88,-243.88 81.12,-243.88"/>
</a>
</g>
</g>
<!-- AreaLocation -->
<g id="node2" class="node">
<title>AreaLocation</title>
<g id="a_node2"><a xlink:href="../AreaLocation" xlink:title="&lt;TABLE&gt;">
<polygon fill="lightgray" stroke="none" points="69.38,-171.88 69.38,-188.12 142.62,-188.12 142.62,-171.88 69.38,-171.88"/>
<text xml:space="preserve" text-anchor="start" x="70.38" y="-175.88" font-family="Arial" font-size="12.00">AreaLocation</text>
<polygon fill="none" stroke="black" points="68.38,-170.88 68.38,-189.12 143.62,-189.12 143.62,-170.88 68.38,-170.88"/>
</a>
</g>
</g>
<!-- AreaLocation&#45;&gt;Location -->
<g id="edge1" class="edge">
<title>AreaLocation&#45;&gt;Location</title>
<path fill="none" stroke="black" d="M106,-197.71C106,-205.47 106,-214.92 106,-223.74"/>
<polygon fill="none" stroke="black" points="102.5,-223.66 106,-233.66 109.5,-223.66 102.5,-223.66"/>
</g>
<!-- Invis -->
<!-- AreaLocation&#45;&gt;Invis -->
<!-- AreaRepresentation -->
<g id="node4" class="node">
<title>AreaRepresentation</title>
<g id="a_node4"><a xlink:href="../AreaRepresentation" xlink:title="&lt;TABLE&gt;">
<polygon fill="lightgray" stroke="none" points="17.38,-25.88 17.38,-42.12 126.62,-42.12 126.62,-25.88 17.38,-25.88"/>
<text xml:space="preserve" text-anchor="start" x="18.38" y="-29.88" font-family="Arial" font-size="12.00">AreaRepresentation</text>
<polygon fill="none" stroke="black" points="16.38,-24.88 16.38,-43.12 127.62,-43.12 127.62,-24.88 16.38,-24.88"/>
</a>
</g>
</g>
<!-- AreaLocation&#45;&gt;AreaRepresentation -->
<g id="edge4" class="edge">
<title>AreaLocation&#45;&gt;AreaRepresentation</title>
<path fill="none" stroke="black" d="M102.03,-162.2C96.28,-137.81 85.53,-92.31 78.58,-62.86"/>
<polygon fill="black" stroke="black" points="81.99,-62.09 76.29,-53.17 75.18,-63.7 81.99,-62.09"/>
<text xml:space="preserve" text-anchor="middle" x="159.23" y="-103.3" font-family="Arial" font-size="11.00">hasPrimaryRepresentation</text>
</g>
<!-- AreaLocation&#45;&gt;AreaRepresentation -->
<g id="edge5" class="edge">
<title>AreaLocation&#45;&gt;AreaRepresentation</title>
<path fill="none" stroke="black" d="M143.5,-175.78C171.64,-171.17 208.37,-160.01 227,-133 238.1,-116.9 238.33,-104.94 227,-89 206.92,-60.74 170.92,-47.14 138.67,-40.66"/>
<polygon fill="black" stroke="black" points="139.4,-37.23 128.94,-38.91 138.16,-44.12 139.4,-37.23"/>
<text xml:space="preserve" text-anchor="middle" x="306.29" y="-103.3" font-family="Arial" font-size="11.00">hasAlternativeRepresentation</text>
</g>
<!-- Invis&#45;&gt;AreaRepresentation -->
</g>
</svg>
