<?xml version="1.0" encoding="UTF-8" standalone="no"?>
<!DOCTYPE svg PUBLIC "-//W3C//DTD SVG 1.1//EN"
 "http://www.w3.org/Graphics/SVG/1.1/DTD/svg11.dtd">
<!-- Generated by graphviz version 14.1.3 (20260303.0454)
 -->
<!-- Pages: 1 -->
<svg width="312pt" height="139pt"
 viewBox="0.00 0.00 312.00 139.00" xmlns="http://www.w3.org/2000/svg" xmlns:xlink="http://www.w3.org/1999/xlink">
<g id="graph0" class="graph" transform="scale(1 1) rotate(0) translate(4 135.38)">
<polygon fill="white" stroke="none" points="-4,4 -4,-135.38 308.25,-135.38 308.25,4 -4,4"/>
<g id="clust3" class="cluster">
<title>cluster_associated</title>
</g>
<!-- AreaByRectangle -->
<g id="node1" class="node">
<title>AreaByRectangle</title>
<g id="a_node1"><a xlink:href="../AreaByRectangle" xlink:title="&lt;TABLE&gt;">
<polygon fill="lightgray" stroke="none" points="1,-105.25 1,-121.5 97.5,-121.5 97.5,-105.25 1,-105.25"/>
<text xml:space="preserve" text-anchor="start" x="2" y="-109.25" font-family="Arial" font-size="12.00">AreaByRectangle</text>
<polygon fill="none" stroke="black" points="0,-104.25 0,-122.5 98.5,-122.5 98.5,-104.25 0,-104.25"/>
</a>
</g>
</g>
<!-- AreaRepresentation -->
<g id="node2" class="node">
<title>AreaRepresentation</title>
<g id="a_node2"><a xlink:href="../AreaRepresentation" xlink:title="&lt;TABLE&gt;">
<polygon fill="lightgray" stroke="none" points="117.62,-105.25 117.62,-121.5 226.88,-121.5 226.88,-105.25 117.62,-105.25"/>
<text xml:space="preserve" text-anchor="start" x="118.62" y="-109.25" font-family="Arial" font-size="12.00">AreaRepresentation</text>
<polygon fill="none" stroke="black" points="116.62,-104.25 116.62,-122.5 227.88,-122.5 227.88,-104.25 116.62,-104.25"/>
</a>
</g>
</g>
<!-- AreaByGrid -->
<g id="node3" class="node">
<title>AreaByGrid</title>
<g id="a_node3"><a xlink:href="../AreaByGrid" xlink:title="&lt;TABLE&gt;">
<polygon fill="lightgray" stroke="none" points="5.75,-42.12 5.75,-58.38 214.75,-58.38 214.75,-42.12 5.75,-42.12"/>
<text xml:space="preserve" text-anchor="start" x="79.12" y="-46.12" font-family="Arial" font-size="12.00">AreaByGrid</text>
<text xml:space="preserve" text-anchor="start" x="6.75" y="-29.88" font-family="Arial" font-size="12.00">numColumns : xsd:nonNegativeInteger</text>
<text xml:space="preserve" text-anchor="start" x="6.75" y="-13.62" font-family="Arial" font-size="12.00">numRows : xsd:nonNegativeInteger</text>
<polygon fill="none" stroke="black" points="4.75,-8.62 4.75,-59.38 215.75,-59.38 215.75,-8.62 4.75,-8.62"/>
</a>
</g>
</g>
<!-- AreaByGrid&#45;&gt;AreaByRectangle -->
<g id="edge1" class="edge">
<title>AreaByGrid&#45;&gt;AreaByRectangle</title>
<path fill="none" stroke="black" d="M91.25,-59.1C84.32,-67.89 76.47,-77.85 69.44,-86.77"/>
<polygon fill="none" stroke="black" points="66.87,-84.38 63.42,-94.4 72.36,-88.71 66.87,-84.38"/>
</g>
<!-- AreaByGrid&#45;&gt;AreaRepresentation -->
<g id="edge2" class="edge">
<title>AreaByGrid&#45;&gt;AreaRepresentation</title>
<path fill="none" stroke="black" d="M129.56,-59.1C136.6,-67.89 144.59,-77.85 151.73,-86.77"/>
<polygon fill="none" stroke="black" points="148.87,-88.79 157.85,-94.4 154.33,-84.41 148.87,-88.79"/>
</g>
<!-- Invis -->
</g>
</svg>
