<?xml version="1.0" encoding="UTF-8" standalone="no"?>
<!DOCTYPE svg PUBLIC "-//W3C//DTD SVG 1.1//EN"
 "http://www.w3.org/Graphics/SVG/1.1/DTD/svg11.dtd">
<!-- Generated by graphviz version 14.1.3 (20260303.0454)
 -->
<!-- Pages: 1 -->
<svg width="201pt" height="279pt"
 viewBox="0.00 0.00 201.00 279.00" xmlns="http://www.w3.org/2000/svg" xmlns:xlink="http://www.w3.org/1999/xlink">
<g id="graph0" class="graph" transform="scale(1 1) rotate(0) translate(4 275)">
<polygon fill="white" stroke="none" points="-4,4 -4,-275 197.36,-275 197.36,4 -4,4"/>
<g id="clust3" class="cluster">
<title>cluster_associated</title>
</g>
<!-- Location -->
<g id="node1" class="node">
<title>Location</title>
<g id="a_node1"><a xlink:href="../Location" xlink:title="&lt;TABLE&gt;">
<polygon fill="lightgray" stroke="none" points="61.12,-244.88 61.12,-261.12 108.88,-261.12 108.88,-244.88 61.12,-244.88"/>
<text xml:space="preserve" text-anchor="start" x="62.12" y="-248.88" font-family="Arial" font-size="12.00">Location</text>
<polygon fill="none" stroke="black" points="60.12,-243.88 60.12,-262.12 109.88,-262.12 109.88,-243.88 60.12,-243.88"/>
</a>
</g>
</g>
<!-- CoordinateLocation -->
<g id="node2" class="node">
<title>CoordinateLocation</title>
<g id="a_node2"><a xlink:href="../CoordinateLocation" xlink:title="&lt;TABLE&gt;">
<polygon fill="lightgray" stroke="none" points="31.5,-171.88 31.5,-188.12 138.5,-188.12 138.5,-171.88 31.5,-171.88"/>
<text xml:space="preserve" text-anchor="start" x="32.5" y="-175.88" font-family="Arial" font-size="12.00">CoordinateLocation</text>
<polygon fill="none" stroke="black" points="30.5,-170.88 30.5,-189.12 139.5,-189.12 139.5,-170.88 30.5,-170.88"/>
</a>
</g>
</g>
<!-- CoordinateLocation&#45;&gt;Location -->
<g id="edge1" class="edge">
<title>CoordinateLocation&#45;&gt;Location</title>
<path fill="none" stroke="black" d="M85,-197.71C85,-205.47 85,-214.92 85,-223.74"/>
<polygon fill="none" stroke="black" points="81.5,-223.66 85,-233.66 88.5,-223.66 81.5,-223.66"/>
</g>
<!-- Invis -->
<!-- CoordinateLocation&#45;&gt;Invis -->
<!-- PointCoordinates -->
<g id="node4" class="node">
<title>PointCoordinates</title>
<g id="a_node4"><a xlink:href="../PointCoordinates" xlink:title="&lt;TABLE&gt;">
<polygon fill="lightgray" stroke="none" points="17.5,-25.88 17.5,-42.12 112.5,-42.12 112.5,-25.88 17.5,-25.88"/>
<text xml:space="preserve" text-anchor="start" x="18.5" y="-29.88" font-family="Arial" font-size="12.00">PointCoordinates</text>
<polygon fill="none" stroke="black" points="16.5,-24.88 16.5,-43.12 113.5,-43.12 113.5,-24.88 16.5,-24.88"/>
</a>
</g>
</g>
<!-- CoordinateLocation&#45;&gt;PointCoordinates -->
<g id="edge4" class="edge">
<title>CoordinateLocation&#45;&gt;PointCoordinates</title>
<path fill="none" stroke="black" d="M88.61,-162.19C91.92,-143.95 95.52,-114.06 90,-89 87.97,-79.78 84.2,-70.26 80.2,-61.83"/>
<polygon fill="black" stroke="black" points="83.45,-60.51 75.79,-53.18 77.21,-63.68 83.45,-60.51"/>
<text xml:space="preserve" text-anchor="middle" x="143.11" y="-110.05" font-family="Arial" font-size="11.00">hasPointCoordinates</text>
<text xml:space="preserve" text-anchor="middle" x="143.11" y="-96.55" font-family="Arial" font-size="11.00">1</text>
</g>
<!-- Invis&#45;&gt;PointCoordinates -->
</g>
</svg>
