<?xml version="1.0" encoding="UTF-8" standalone="no"?>
<!DOCTYPE svg PUBLIC "-//W3C//DTD SVG 1.1//EN"
 "http://www.w3.org/Graphics/SVG/1.1/DTD/svg11.dtd">
<!-- Generated by graphviz version 14.1.3 (20260303.0454)
 -->
<!-- Pages: 1 -->
<svg width="503pt" height="438pt"
 viewBox="0.00 0.00 503.00 438.00" xmlns="http://www.w3.org/2000/svg" xmlns:xlink="http://www.w3.org/1999/xlink">
<g id="graph0" class="graph" transform="scale(1 1) rotate(0) translate(4 433.5)">
<polygon fill="white" stroke="none" points="-4,4 -4,-433.5 499,-433.5 499,4 -4,4"/>
<g id="clust3" class="cluster">
<title>cluster_associated</title>
</g>
<!-- LocationThing -->
<g id="node1" class="node">
<title>LocationThing</title>
<g id="a_node1"><a xlink:href="../LocationThing" xlink:title="&lt;TABLE&gt;">
<polygon fill="lightgray" stroke="none" points="132.75,-403.38 132.75,-419.62 211.25,-419.62 211.25,-403.38 132.75,-403.38"/>
<text xml:space="preserve" text-anchor="start" x="133.75" y="-407.38" font-family="Arial" font-size="12.00">LocationThing</text>
<polygon fill="none" stroke="black" points="131.75,-402.38 131.75,-420.62 212.25,-420.62 212.25,-402.38 131.75,-402.38"/>
</a>
</g>
</g>
<!-- DistanceAccuracy -->
<g id="node2" class="node">
<title>DistanceAccuracy</title>
<g id="a_node2"><a xlink:href="../DistanceAccuracy" xlink:title="&lt;TABLE&gt;">
<polygon fill="lightgray" stroke="none" points="122.62,-330.38 122.62,-346.62 221.38,-346.62 221.38,-330.38 122.62,-330.38"/>
<text xml:space="preserve" text-anchor="start" x="123.62" y="-334.38" font-family="Arial" font-size="12.00">DistanceAccuracy</text>
<polygon fill="none" stroke="black" points="121.62,-329.38 121.62,-347.62 222.38,-347.62 222.38,-329.38 121.62,-329.38"/>
</a>
</g>
</g>
<!-- DistanceAccuracy&#45;&gt;LocationThing -->
<g id="edge1" class="edge">
<title>DistanceAccuracy&#45;&gt;LocationThing</title>
<path fill="none" stroke="black" d="M172,-356.21C172,-363.97 172,-373.42 172,-382.24"/>
<polygon fill="none" stroke="black" points="168.5,-382.16 172,-392.16 175.5,-382.16 168.5,-382.16"/>
</g>
<!-- Invis -->
<!-- DistanceAccuracy&#45;&gt;Invis -->
<!-- cdm1_Length -->
<g id="node4" class="node">
<title>cdm1_Length</title>
<g id="a_node4"><a xlink:href="https://w3id.org/citydata/part1/v1/Length" xlink:title="&lt;TABLE&gt;">
<polygon fill="lightgray" stroke="none" points="58.5,-171.88 58.5,-188.12 129.5,-188.12 129.5,-171.88 58.5,-171.88"/>
<text xml:space="preserve" text-anchor="start" x="59.5" y="-175.88" font-family="Arial" font-size="12.00">cdm1:Length</text>
<polygon fill="none" stroke="black" points="57.5,-170.88 57.5,-189.12 130.5,-189.12 130.5,-170.88 57.5,-170.88"/>
</a>
</g>
</g>
<!-- DistanceAccuracy&#45;&gt;cdm1_Length -->
<g id="edge6" class="edge">
<title>DistanceAccuracy&#45;&gt;cdm1_Length</title>
<path fill="none" stroke="black" d="M147.19,-320.51C137.53,-312.72 127.2,-302.72 120.5,-291.5 105.33,-266.12 98.84,-232.58 96.07,-209.14"/>
<polygon fill="black" stroke="black" points="99.57,-209 95.08,-199.4 92.61,-209.7 99.57,-209"/>
<text xml:space="preserve" text-anchor="middle" x="172.25" y="-261.8" font-family="Arial" font-size="11.00">hasDistanceAccuracy</text>
</g>
<!-- cdm1_Ratio -->
<g id="node5" class="node">
<title>cdm1_Ratio</title>
<g id="a_node5"><a xlink:href="https://w3id.org/citydata/part1/v1/Ratio" xlink:title="&lt;TABLE&gt;">
<polygon fill="lightgray" stroke="none" points="62.62,-98.88 62.62,-115.12 125.38,-115.12 125.38,-98.88 62.62,-98.88"/>
<text xml:space="preserve" text-anchor="start" x="63.62" y="-102.88" font-family="Arial" font-size="12.00">cdm1:Ratio</text>
<polygon fill="none" stroke="black" points="61.62,-97.88 61.62,-116.12 126.38,-116.12 126.38,-97.88 61.62,-97.88"/>
</a>
</g>
</g>
<!-- DistanceAccuracy&#45;&gt;cdm1_Ratio -->
<g id="edge7" class="edge">
<title>DistanceAccuracy&#45;&gt;cdm1_Ratio</title>
<path fill="none" stroke="black" d="M199.23,-320.63C208.93,-313.04 218.75,-303.15 224,-291.5 232.03,-273.67 231.16,-265.7 224,-247.5 204.68,-198.44 159.08,-156.42 127.38,-131.68"/>
<polygon fill="black" stroke="black" points="129.71,-129.06 119.64,-125.79 125.47,-134.63 129.71,-129.06"/>
<text xml:space="preserve" text-anchor="middle" x="268.39" y="-219.05" font-family="Arial" font-size="11.00">confidencePercentage</text>
</g>
<!-- MeasurementErrorCode -->
<g id="node6" class="node">
<title>MeasurementErrorCode</title>
<g id="a_node6"><a xlink:href="../MeasurementErrorCode" xlink:title="&lt;TABLE&gt;">
<polygon fill="lightgray" stroke="none" points="16.88,-25.88 16.88,-42.12 147.12,-42.12 147.12,-25.88 16.88,-25.88"/>
<text xml:space="preserve" text-anchor="start" x="17.88" y="-29.88" font-family="Arial" font-size="12.00">MeasurementErrorCode</text>
<polygon fill="none" stroke="black" points="15.88,-24.88 15.88,-43.12 148.12,-43.12 148.12,-24.88 15.88,-24.88"/>
</a>
</g>
</g>
<!-- DistanceAccuracy&#45;&gt;MeasurementErrorCode -->
<g id="edge8" class="edge">
<title>DistanceAccuracy&#45;&gt;MeasurementErrorCode</title>
<path fill="none" stroke="black" d="M221.89,-328.79C277.58,-317.61 360,-296.07 360,-266.5 360,-266.5 360,-266.5 360,-106 360,-64.37 241.5,-46.84 159.23,-39.68"/>
<polygon fill="black" stroke="black" points="159.65,-36.2 149.39,-38.86 159.07,-43.18 159.65,-36.2"/>
<text xml:space="preserve" text-anchor="middle" x="427.5" y="-176.3" font-family="Arial" font-size="11.00">distanceAccuracyErrorCode</text>
</g>
<!-- Invis&#45;&gt;cdm1_Length -->
<!-- cdm1_Length&#45;&gt;cdm1_Ratio -->
<!-- cdm1_Ratio&#45;&gt;MeasurementErrorCode -->
</g>
</svg>
