<?xml version="1.0" encoding="UTF-8" standalone="no"?>
<!DOCTYPE svg PUBLIC "-//W3C//DTD SVG 1.1//EN"
 "http://www.w3.org/Graphics/SVG/1.1/DTD/svg11.dtd">
<!-- Generated by graphviz version 14.1.3 (20260303.0454)
 -->
<!-- Pages: 1 -->
<svg width="546pt" height="523pt"
 viewBox="0.00 0.00 546.00 523.00" xmlns="http://www.w3.org/2000/svg" xmlns:xlink="http://www.w3.org/1999/xlink">
<g id="graph0" class="graph" transform="scale(1 1) rotate(0) translate(4 519)">
<polygon fill="white" stroke="none" points="-4,4 -4,-519 541.75,-519 541.75,4 -4,4"/>
<g id="clust3" class="cluster">
<title>cluster_associated</title>
</g>
<!-- LocationThing -->
<g id="node1" class="node">
<title>LocationThing</title>
<g id="a_node1"><a xlink:href="../LocationThing" xlink:title="&lt;TABLE&gt;">
<polygon fill="lightgray" stroke="none" points="198.75,-488.88 198.75,-505.12 277.25,-505.12 277.25,-488.88 198.75,-488.88"/>
<text xml:space="preserve" text-anchor="start" x="199.75" y="-492.88" font-family="Arial" font-size="12.00">LocationThing</text>
<polygon fill="none" stroke="black" points="197.75,-487.88 197.75,-506.12 278.25,-506.12 278.25,-487.88 197.75,-487.88"/>
</a>
</g>
</g>
<!-- Elevation -->
<g id="node2" class="node">
<title>Elevation</title>
<g id="a_node2"><a xlink:href="../Elevation" xlink:title="&lt;TABLE&gt;">
<polygon fill="lightgray" stroke="none" points="211.88,-415.88 211.88,-432.12 264.12,-432.12 264.12,-415.88 211.88,-415.88"/>
<text xml:space="preserve" text-anchor="start" x="212.88" y="-419.88" font-family="Arial" font-size="12.00">Elevation</text>
<polygon fill="none" stroke="black" points="210.88,-414.88 210.88,-433.12 265.12,-433.12 265.12,-414.88 210.88,-414.88"/>
</a>
</g>
</g>
<!-- Elevation&#45;&gt;LocationThing -->
<g id="edge1" class="edge">
<title>Elevation&#45;&gt;LocationThing</title>
<path fill="none" stroke="black" d="M238,-441.71C238,-449.47 238,-458.92 238,-467.74"/>
<polygon fill="none" stroke="black" points="234.5,-467.66 238,-477.66 241.5,-467.66 234.5,-467.66"/>
</g>
<!-- Invis -->
<!-- Elevation&#45;&gt;Invis -->
<!-- cdm1_Length -->
<g id="node4" class="node">
<title>cdm1_Length</title>
<g id="a_node4"><a xlink:href="https://w3id.org/citydata/part1/v1/Length" xlink:title="&lt;TABLE&gt;">
<polygon fill="lightgray" stroke="none" points="57.5,-257.38 57.5,-273.62 128.5,-273.62 128.5,-257.38 57.5,-257.38"/>
<text xml:space="preserve" text-anchor="start" x="58.5" y="-261.38" font-family="Arial" font-size="12.00">cdm1:Length</text>
<polygon fill="none" stroke="black" points="56.5,-256.38 56.5,-274.62 129.5,-274.62 129.5,-256.38 56.5,-256.38"/>
</a>
</g>
</g>
<!-- Elevation&#45;&gt;cdm1_Length -->
<g id="edge8" class="edge">
<title>Elevation&#45;&gt;cdm1_Length</title>
<path fill="none" stroke="black" d="M211.08,-419.64C184.25,-414.86 143.78,-403.5 120.5,-377 100.52,-354.26 94.6,-319.19 93.07,-294.67"/>
<polygon fill="black" stroke="black" points="96.58,-294.63 92.69,-284.77 89.58,-294.9 96.58,-294.63"/>
<text xml:space="preserve" text-anchor="middle" x="172.25" y="-347.3" font-family="Arial" font-size="11.00">hasElevationDistance</text>
</g>
<!-- ElevationAccuracy -->
<g id="node5" class="node">
<title>ElevationAccuracy</title>
<g id="a_node5"><a xlink:href="../ElevationAccuracy" xlink:title="&lt;TABLE&gt;">
<polygon fill="lightgray" stroke="none" points="44.12,-171.88 44.12,-188.12 145.88,-188.12 145.88,-171.88 44.12,-171.88"/>
<text xml:space="preserve" text-anchor="start" x="45.12" y="-175.88" font-family="Arial" font-size="12.00">ElevationAccuracy</text>
<polygon fill="none" stroke="black" points="43.12,-170.88 43.12,-189.12 146.88,-189.12 146.88,-170.88 43.12,-170.88"/>
</a>
</g>
</g>
<!-- Elevation&#45;&gt;ElevationAccuracy -->
<g id="edge10" class="edge">
<title>Elevation&#45;&gt;ElevationAccuracy</title>
<path fill="none" stroke="black" d="M240.37,-406.15C242.18,-386.18 241.87,-353.09 224,-333 204.15,-310.68 180.58,-335.91 159.25,-315 136.88,-293.08 152.28,-275.86 139,-247.5 132.44,-233.49 123.23,-219.05 114.92,-207.21"/>
<polygon fill="black" stroke="black" points="117.82,-205.24 109.13,-199.18 112.14,-209.34 117.82,-205.24"/>
<text xml:space="preserve" text-anchor="middle" x="212.12" y="-304.55" font-family="Arial" font-size="11.00">hasElevationAccuracy</text>
</g>
<!-- ElevationHeightCode -->
<g id="node6" class="node">
<title>ElevationHeightCode</title>
<g id="a_node6"><a xlink:href="../ElevationHeightCode" xlink:title="&lt;TABLE&gt;">
<polygon fill="lightgray" stroke="none" points="36.62,-98.88 36.62,-115.12 153.38,-115.12 153.38,-98.88 36.62,-98.88"/>
<text xml:space="preserve" text-anchor="start" x="37.62" y="-102.88" font-family="Arial" font-size="12.00">ElevationHeightCode</text>
<polygon fill="none" stroke="black" points="35.62,-97.88 35.62,-116.12 154.38,-116.12 154.38,-97.88 35.62,-97.88"/>
</a>
</g>
</g>
<!-- Elevation&#45;&gt;ElevationHeightCode -->
<g id="edge9" class="edge">
<title>Elevation&#45;&gt;ElevationHeightCode</title>
<path fill="none" stroke="black" d="M254.44,-406.17C265.85,-392.68 279,-372.64 279,-352 279,-352 279,-352 279,-179 279,-153.59 217.13,-133.77 165.15,-121.61"/>
<polygon fill="black" stroke="black" points="166.23,-118.27 155.71,-119.47 164.68,-125.09 166.23,-118.27"/>
<text xml:space="preserve" text-anchor="middle" x="338.62" y="-261.8" font-family="Arial" font-size="11.00">hasElevationHeightCode</text>
</g>
<!-- ElevationReferenceCode -->
<g id="node7" class="node">
<title>ElevationReferenceCode</title>
<g id="a_node7"><a xlink:href="../ElevationReferenceCode" xlink:title="&lt;TABLE&gt;">
<polygon fill="lightgray" stroke="none" points="17.5,-25.88 17.5,-42.12 154.5,-42.12 154.5,-25.88 17.5,-25.88"/>
<text xml:space="preserve" text-anchor="start" x="18.5" y="-29.88" font-family="Arial" font-size="12.00">ElevationReferenceCode</text>
<polygon fill="none" stroke="black" points="16.5,-24.88 16.5,-43.12 155.5,-43.12 155.5,-24.88 16.5,-24.88"/>
</a>
</g>
</g>
<!-- Elevation&#45;&gt;ElevationReferenceCode -->
<g id="edge7" class="edge">
<title>Elevation&#45;&gt;ElevationReferenceCode</title>
<path fill="none" stroke="black" d="M264.94,-418.62C316.92,-409.41 426,-386.02 426,-352 426,-352 426,-352 426,-106 426,-53.23 267.11,-39.43 166.57,-35.98"/>
<polygon fill="black" stroke="black" points="166.83,-32.49 156.73,-35.67 166.61,-39.48 166.83,-32.49"/>
<text xml:space="preserve" text-anchor="middle" x="481.88" y="-219.05" font-family="Arial" font-size="11.00">hasElevationReference</text>
</g>
<!-- Invis&#45;&gt;cdm1_Length -->
<!-- cdm1_Length&#45;&gt;ElevationAccuracy -->
<!-- ElevationAccuracy&#45;&gt;ElevationHeightCode -->
<!-- ElevationHeightCode&#45;&gt;ElevationReferenceCode -->
</g>
</svg>
