<?xml version="1.0" encoding="UTF-8" standalone="no"?>
<!DOCTYPE svg PUBLIC "-//W3C//DTD SVG 1.1//EN"
 "http://www.w3.org/Graphics/SVG/1.1/DTD/svg11.dtd">
<!-- Generated by graphviz version 14.1.3 (20260303.0454)
 -->
<!-- Pages: 1 -->
<svg width="324pt" height="139pt"
 viewBox="0.00 0.00 324.00 139.00" xmlns="http://www.w3.org/2000/svg" xmlns:xlink="http://www.w3.org/1999/xlink">
<g id="graph0" class="graph" transform="scale(1 1) rotate(0) translate(4 135.38)">
<polygon fill="white" stroke="none" points="-4,4 -4,-135.38 319.75,-135.38 319.75,4 -4,4"/>
<g id="clust3" class="cluster">
<title>cluster_associated</title>
</g>
<!-- Location -->
<g id="node1" class="node">
<title>Location</title>
<g id="a_node1"><a xlink:href="../Location" xlink:title="&lt;TABLE&gt;">
<polygon fill="lightgray" stroke="none" points="89.88,-105.25 89.88,-121.5 137.62,-121.5 137.62,-105.25 89.88,-105.25"/>
<text xml:space="preserve" text-anchor="start" x="90.88" y="-109.25" font-family="Arial" font-size="12.00">Location</text>
<polygon fill="none" stroke="black" points="88.88,-104.25 88.88,-122.5 138.62,-122.5 138.62,-104.25 88.88,-104.25"/>
</a>
</g>
</g>
<!-- ExternalReference -->
<g id="node2" class="node">
<title>ExternalReference</title>
<g id="a_node2"><a xlink:href="../ExternalReference" xlink:title="&lt;TABLE&gt;">
<polygon fill="lightgray" stroke="none" points="1,-42.12 1,-58.38 226.5,-58.38 226.5,-42.12 1,-42.12"/>
<text xml:space="preserve" text-anchor="start" x="63.88" y="-46.12" font-family="Arial" font-size="12.00">ExternalReference</text>
<text xml:space="preserve" text-anchor="start" x="2" y="-29.88" font-family="Arial" font-size="12.00">externalLocationCode : xsd:string [1]</text>
<text xml:space="preserve" text-anchor="start" x="2" y="-13.62" font-family="Arial" font-size="12.00">externalReferencingSystem : xsd:string [1]</text>
<polygon fill="none" stroke="black" points="0,-8.62 0,-59.38 227.5,-59.38 227.5,-8.62 0,-8.62"/>
</a>
</g>
</g>
<!-- ExternalReference&#45;&gt;Location -->
<g id="edge1" class="edge">
<title>ExternalReference&#45;&gt;Location</title>
<path fill="none" stroke="black" d="M113.75,-59.1C113.75,-67.05 113.75,-75.97 113.75,-84.21"/>
<polygon fill="none" stroke="black" points="110.25,-84.07 113.75,-94.07 117.25,-84.07 110.25,-84.07"/>
</g>
<!-- Invis -->
</g>
</svg>
