<?xml version="1.0" encoding="UTF-8" standalone="no"?>
<!DOCTYPE svg PUBLIC "-//W3C//DTD SVG 1.1//EN"
 "http://www.w3.org/Graphics/SVG/1.1/DTD/svg11.dtd">
<!-- Generated by graphviz version 14.1.3 (20260303.0454)
 -->
<!-- Pages: 1 -->
<svg width="202pt" height="132pt"
 viewBox="0.00 0.00 202.00 132.00" xmlns="http://www.w3.org/2000/svg" xmlns:xlink="http://www.w3.org/1999/xlink">
<g id="graph0" class="graph" transform="scale(1 1) rotate(0) translate(4 128)">
<polygon fill="white" stroke="none" points="-4,4 -4,-128 198.25,-128 198.25,4 -4,4"/>
<g id="clust3" class="cluster">
<title>cluster_associated</title>
</g>
<!-- geo_Feature -->
<g id="node1" class="node">
<title>geo_Feature</title>
<g id="a_node1"><a xlink:href="https://w3id.org/citydata/imported/geo/latest/Feature" xlink:title="&lt;TABLE&gt;">
<polygon fill="lightgray" stroke="none" points="1,-97.88 1,-114.12 67.5,-114.12 67.5,-97.88 1,-97.88"/>
<text xml:space="preserve" text-anchor="start" x="2" y="-101.88" font-family="Arial" font-size="12.00">geo:Feature</text>
<polygon fill="none" stroke="black" points="0,-96.88 0,-115.12 68.5,-115.12 68.5,-96.88 0,-96.88"/>
</a>
</g>
</g>
<!-- SpatialObject -->
<g id="node2" class="node">
<title>SpatialObject</title>
<g id="a_node2"><a xlink:href="../SpatialObject" xlink:title="&lt;TABLE&gt;">
<polygon fill="lightgray" stroke="none" points="87.25,-97.88 87.25,-114.12 161.25,-114.12 161.25,-97.88 87.25,-97.88"/>
<text xml:space="preserve" text-anchor="start" x="88.25" y="-101.88" font-family="Arial" font-size="12.00">SpatialObject</text>
<polygon fill="none" stroke="black" points="86.25,-96.88 86.25,-115.12 162.25,-115.12 162.25,-96.88 86.25,-96.88"/>
</a>
</g>
</g>
<!-- Feature -->
<g id="node3" class="node">
<title>Feature</title>
<g id="a_node3"><a xlink:href="../Feature" xlink:title="&lt;TABLE&gt;">
<polygon fill="lightgray" stroke="none" points="57.62,-25.88 57.62,-42.12 100.88,-42.12 100.88,-25.88 57.62,-25.88"/>
<text xml:space="preserve" text-anchor="start" x="58.62" y="-29.88" font-family="Arial" font-size="12.00">Feature</text>
<polygon fill="none" stroke="black" points="56.62,-24.88 56.62,-43.12 101.88,-43.12 101.88,-24.88 56.62,-24.88"/>
</a>
</g>
</g>
<!-- Feature&#45;&gt;geo_Feature -->
<g id="edge1" class="edge">
<title>Feature&#45;&gt;geo_Feature</title>
<path fill="none" stroke="black" d="M68.46,-51.79C63.33,-59.76 57.08,-69.48 51.33,-78.43"/>
<polygon fill="none" stroke="black" points="48.43,-76.48 45.96,-86.78 54.31,-80.26 48.43,-76.48"/>
</g>
<!-- Feature&#45;&gt;SpatialObject -->
<g id="edge2" class="edge">
<title>Feature&#45;&gt;SpatialObject</title>
<path fill="none" stroke="black" d="M90.04,-51.79C95.17,-59.76 101.42,-69.48 107.17,-78.43"/>
<polygon fill="none" stroke="black" points="104.19,-80.26 112.54,-86.78 110.07,-76.48 104.19,-80.26"/>
</g>
<!-- Invis -->
</g>
</svg>
