<?xml version="1.0" encoding="UTF-8" standalone="no"?>
<!DOCTYPE svg PUBLIC "-//W3C//DTD SVG 1.1//EN"
 "http://www.w3.org/Graphics/SVG/1.1/DTD/svg11.dtd">
<!-- Generated by graphviz version 14.1.3 (20260303.0454)
 -->
<!-- Pages: 1 -->
<svg width="224pt" height="132pt"
 viewBox="0.00 0.00 224.00 132.00" xmlns="http://www.w3.org/2000/svg" xmlns:xlink="http://www.w3.org/1999/xlink">
<g id="graph0" class="graph" transform="scale(1 1) rotate(0) translate(4 128)">
<polygon fill="white" stroke="none" points="-4,4 -4,-128 220.25,-128 220.25,4 -4,4"/>
<g id="clust3" class="cluster">
<title>cluster_associated</title>
</g>
<!-- Geometry -->
<g id="node1" class="node">
<title>Geometry</title>
<g id="a_node1"><a xlink:href="../Geometry" xlink:title="&lt;TABLE&gt;">
<polygon fill="lightgray" stroke="none" points="37.38,-97.88 37.38,-114.12 91.12,-114.12 91.12,-97.88 37.38,-97.88"/>
<text xml:space="preserve" text-anchor="start" x="38.38" y="-101.88" font-family="Arial" font-size="12.00">Geometry</text>
<polygon fill="none" stroke="black" points="36.38,-96.88 36.38,-115.12 92.12,-115.12 92.12,-96.88 36.38,-96.88"/>
</a>
</g>
</g>
<!-- ItineraryRepresentation -->
<g id="node2" class="node">
<title>ItineraryRepresentation</title>
<g id="a_node2"><a xlink:href="../ItineraryRepresentation" xlink:title="&lt;TABLE&gt;">
<polygon fill="lightgray" stroke="none" points="1,-25.88 1,-42.12 127.5,-42.12 127.5,-25.88 1,-25.88"/>
<text xml:space="preserve" text-anchor="start" x="2" y="-29.88" font-family="Arial" font-size="12.00">ItineraryRepresentation</text>
<polygon fill="none" stroke="black" points="0,-24.88 0,-43.12 128.5,-43.12 128.5,-24.88 0,-24.88"/>
</a>
</g>
</g>
<!-- ItineraryRepresentation&#45;&gt;Geometry -->
<g id="edge1" class="edge">
<title>ItineraryRepresentation&#45;&gt;Geometry</title>
<path fill="none" stroke="black" d="M64.25,-51.79C64.25,-59.25 64.25,-68.24 64.25,-76.69"/>
<polygon fill="none" stroke="black" points="60.75,-76.54 64.25,-86.54 67.75,-76.54 60.75,-76.54"/>
</g>
<!-- Invis -->
</g>
</svg>
