<?xml version="1.0" encoding="UTF-8" standalone="no"?>
<!DOCTYPE svg PUBLIC "-//W3C//DTD SVG 1.1//EN"
 "http://www.w3.org/Graphics/SVG/1.1/DTD/svg11.dtd">
<!-- Generated by graphviz version 14.1.3 (20260303.0454)
 -->
<!-- Pages: 1 -->
<svg width="172pt" height="279pt"
 viewBox="0.00 0.00 172.00 279.00" xmlns="http://www.w3.org/2000/svg" xmlns:xlink="http://www.w3.org/1999/xlink">
<g id="graph0" class="graph" transform="scale(1 1) rotate(0) translate(4 275)">
<polygon fill="white" stroke="none" points="-4,4 -4,-275 167.69,-275 167.69,4 -4,4"/>
<g id="clust3" class="cluster">
<title>cluster_associated</title>
</g>
<!-- ItineraryRepresentation -->
<g id="node1" class="node">
<title>ItineraryRepresentation</title>
<g id="a_node1"><a xlink:href="../ItineraryRepresentation" xlink:title="&lt;TABLE&gt;">
<polygon fill="lightgray" stroke="none" points="13.75,-244.88 13.75,-261.12 140.25,-261.12 140.25,-244.88 13.75,-244.88"/>
<text xml:space="preserve" text-anchor="start" x="14.75" y="-248.88" font-family="Arial" font-size="12.00">ItineraryRepresentation</text>
<polygon fill="none" stroke="black" points="12.75,-243.88 12.75,-262.12 141.25,-262.12 141.25,-243.88 12.75,-243.88"/>
</a>
</g>
</g>
<!-- ItineraryByWaypoints -->
<g id="node2" class="node">
<title>ItineraryByWaypoints</title>
<g id="a_node2"><a xlink:href="../ItineraryByWaypoints" xlink:title="&lt;TABLE&gt;">
<polygon fill="lightgray" stroke="none" points="19.38,-171.88 19.38,-188.12 134.62,-188.12 134.62,-171.88 19.38,-171.88"/>
<text xml:space="preserve" text-anchor="start" x="20.38" y="-175.88" font-family="Arial" font-size="12.00">ItineraryByWaypoints</text>
<polygon fill="none" stroke="black" points="18.38,-170.88 18.38,-189.12 135.62,-189.12 135.62,-170.88 18.38,-170.88"/>
</a>
</g>
</g>
<!-- ItineraryByWaypoints&#45;&gt;ItineraryRepresentation -->
<g id="edge1" class="edge">
<title>ItineraryByWaypoints&#45;&gt;ItineraryRepresentation</title>
<path fill="none" stroke="black" d="M77,-197.71C77,-205.47 77,-214.92 77,-223.74"/>
<polygon fill="none" stroke="black" points="73.5,-223.66 77,-233.66 80.5,-223.66 73.5,-223.66"/>
</g>
<!-- Invis -->
<!-- ItineraryByWaypoints&#45;&gt;Invis -->
<!-- LocationList -->
<g id="node4" class="node">
<title>LocationList</title>
<g id="a_node4"><a xlink:href="../LocationList" xlink:title="&lt;TABLE&gt;">
<polygon fill="lightgray" stroke="none" points="16.75,-25.88 16.75,-42.12 83.25,-42.12 83.25,-25.88 16.75,-25.88"/>
<text xml:space="preserve" text-anchor="start" x="17.75" y="-29.88" font-family="Arial" font-size="12.00">LocationList</text>
<polygon fill="none" stroke="black" points="15.75,-24.88 15.75,-43.12 84.25,-43.12 84.25,-24.88 15.75,-24.88"/>
</a>
</g>
</g>
<!-- ItineraryByWaypoints&#45;&gt;LocationList -->
<g id="edge4" class="edge">
<title>ItineraryByWaypoints&#45;&gt;LocationList</title>
<path fill="none" stroke="black" d="M81.1,-162.07C84.82,-143.73 88.78,-113.75 82,-89 79.38,-79.44 74.58,-69.85 69.48,-61.46"/>
<polygon fill="black" stroke="black" points="72.46,-59.63 64.06,-53.18 66.6,-63.46 72.46,-59.63"/>
<text xml:space="preserve" text-anchor="middle" x="124.69" y="-103.3" font-family="Arial" font-size="11.00">hasWaypointList</text>
</g>
<!-- Invis&#45;&gt;LocationList -->
</g>
</svg>
