<?xml version="1.0" encoding="UTF-8" standalone="no"?>
<!DOCTYPE svg PUBLIC "-//W3C//DTD SVG 1.1//EN"
 "http://www.w3.org/Graphics/SVG/1.1/DTD/svg11.dtd">
<!-- Generated by graphviz version 14.1.3 (20260303.0454)
 -->
<!-- Pages: 1 -->
<svg width="269pt" height="132pt"
 viewBox="0.00 0.00 269.00 132.00" xmlns="http://www.w3.org/2000/svg" xmlns:xlink="http://www.w3.org/1999/xlink">
<g id="graph0" class="graph" transform="scale(1 1) rotate(0) translate(4 128)">
<polygon fill="white" stroke="none" points="-4,4 -4,-128 264.75,-128 264.75,4 -4,4"/>
<g id="clust3" class="cluster">
<title>cluster_associated</title>
</g>
<!-- LinearRepresentation -->
<g id="node1" class="node">
<title>LinearRepresentation</title>
<g id="a_node1"><a xlink:href="../LinearRepresentation" xlink:title="&lt;TABLE&gt;">
<polygon fill="lightgray" stroke="none" points="1,-97.88 1,-114.12 118.5,-114.12 118.5,-97.88 1,-97.88"/>
<text xml:space="preserve" text-anchor="start" x="2" y="-101.88" font-family="Arial" font-size="12.00">LinearRepresentation</text>
<polygon fill="none" stroke="black" points="0,-96.88 0,-115.12 119.5,-115.12 119.5,-96.88 0,-96.88"/>
</a>
</g>
</g>
<!-- sf_LinearRing -->
<g id="node2" class="node">
<title>sf_LinearRing</title>
<g id="a_node2"><a xlink:href="https://w3id.org/citydata/imported/sf/latest/LinearRing" xlink:title="&lt;TABLE&gt;">
<polygon fill="lightgray" stroke="none" points="138.12,-97.88 138.12,-114.12 211.38,-114.12 211.38,-97.88 138.12,-97.88"/>
<text xml:space="preserve" text-anchor="start" x="139.12" y="-101.88" font-family="Arial" font-size="12.00">sf:LinearRing</text>
<polygon fill="none" stroke="black" points="137.12,-96.88 137.12,-115.12 212.38,-115.12 212.38,-96.88 137.12,-96.88"/>
</a>
</g>
</g>
<!-- LinearByLinearRing -->
<g id="node3" class="node">
<title>LinearByLinearRing</title>
<g id="a_node3"><a xlink:href="../LinearByLinearRing" xlink:title="&lt;TABLE&gt;">
<polygon fill="lightgray" stroke="none" points="62.12,-25.88 62.12,-42.12 171.38,-42.12 171.38,-25.88 62.12,-25.88"/>
<text xml:space="preserve" text-anchor="start" x="63.12" y="-29.88" font-family="Arial" font-size="12.00">LinearByLinearRing</text>
<polygon fill="none" stroke="black" points="61.12,-24.88 61.12,-43.12 172.38,-43.12 172.38,-24.88 61.12,-24.88"/>
</a>
</g>
</g>
<!-- LinearByLinearRing&#45;&gt;LinearRepresentation -->
<g id="edge1" class="edge">
<title>LinearByLinearRing&#45;&gt;LinearRepresentation</title>
<path fill="none" stroke="black" d="M103.08,-51.79C96.38,-60.02 88.16,-70.11 80.69,-79.29"/>
<polygon fill="none" stroke="black" points="78.1,-76.92 74.5,-86.88 83.53,-81.34 78.1,-76.92"/>
</g>
<!-- LinearByLinearRing&#45;&gt;sf_LinearRing -->
<g id="edge2" class="edge">
<title>LinearByLinearRing&#45;&gt;sf_LinearRing</title>
<path fill="none" stroke="black" d="M130.66,-51.79C137.48,-60.02 145.84,-70.11 153.45,-79.29"/>
<polygon fill="none" stroke="black" points="150.67,-81.42 159.74,-86.89 156.06,-76.96 150.67,-81.42"/>
</g>
<!-- Invis -->
</g>
</svg>
