<?xml version="1.0" encoding="UTF-8" standalone="no"?>
<!DOCTYPE svg PUBLIC "-//W3C//DTD SVG 1.1//EN"
 "http://www.w3.org/Graphics/SVG/1.1/DTD/svg11.dtd">
<!-- Generated by graphviz version 14.1.3 (20260303.0454)
 -->
<!-- Pages: 1 -->
<svg width="387pt" height="279pt"
 viewBox="0.00 0.00 387.00 279.00" xmlns="http://www.w3.org/2000/svg" xmlns:xlink="http://www.w3.org/1999/xlink">
<g id="graph0" class="graph" transform="scale(1 1) rotate(0) translate(4 275)">
<polygon fill="white" stroke="none" points="-4,4 -4,-275 383.17,-275 383.17,4 -4,4"/>
<g id="clust3" class="cluster">
<title>cluster_associated</title>
</g>
<!-- Location -->
<g id="node1" class="node">
<title>Location</title>
<g id="a_node1"><a xlink:href="../Location" xlink:title="&lt;TABLE&gt;">
<polygon fill="lightgray" stroke="none" points="82.12,-244.88 82.12,-261.12 129.88,-261.12 129.88,-244.88 82.12,-244.88"/>
<text xml:space="preserve" text-anchor="start" x="83.12" y="-248.88" font-family="Arial" font-size="12.00">Location</text>
<polygon fill="none" stroke="black" points="81.12,-243.88 81.12,-262.12 130.88,-262.12 130.88,-243.88 81.12,-243.88"/>
</a>
</g>
</g>
<!-- LinearLocation -->
<g id="node2" class="node">
<title>LinearLocation</title>
<g id="a_node2"><a xlink:href="../LinearLocation" xlink:title="&lt;TABLE&gt;">
<polygon fill="lightgray" stroke="none" points="65.25,-171.88 65.25,-188.12 146.75,-188.12 146.75,-171.88 65.25,-171.88"/>
<text xml:space="preserve" text-anchor="start" x="66.25" y="-175.88" font-family="Arial" font-size="12.00">LinearLocation</text>
<polygon fill="none" stroke="black" points="64.25,-170.88 64.25,-189.12 147.75,-189.12 147.75,-170.88 64.25,-170.88"/>
</a>
</g>
</g>
<!-- LinearLocation&#45;&gt;Location -->
<g id="edge1" class="edge">
<title>LinearLocation&#45;&gt;Location</title>
<path fill="none" stroke="black" d="M106,-197.71C106,-205.47 106,-214.92 106,-223.74"/>
<polygon fill="none" stroke="black" points="102.5,-223.66 106,-233.66 109.5,-223.66 102.5,-223.66"/>
</g>
<!-- Invis -->
<!-- LinearLocation&#45;&gt;Invis -->
<!-- LinearRepresentation -->
<g id="node4" class="node">
<title>LinearRepresentation</title>
<g id="a_node4"><a xlink:href="../LinearRepresentation" xlink:title="&lt;TABLE&gt;">
<polygon fill="lightgray" stroke="none" points="17.25,-25.88 17.25,-42.12 134.75,-42.12 134.75,-25.88 17.25,-25.88"/>
<text xml:space="preserve" text-anchor="start" x="18.25" y="-29.88" font-family="Arial" font-size="12.00">LinearRepresentation</text>
<polygon fill="none" stroke="black" points="16.25,-24.88 16.25,-43.12 135.75,-43.12 135.75,-24.88 16.25,-24.88"/>
</a>
</g>
</g>
<!-- LinearLocation&#45;&gt;LinearRepresentation -->
<g id="edge4" class="edge">
<title>LinearLocation&#45;&gt;LinearRepresentation</title>
<path fill="none" stroke="black" d="M102.5,-162.2C97.42,-137.81 87.94,-92.31 81.8,-62.86"/>
<polygon fill="black" stroke="black" points="85.25,-62.25 79.79,-53.18 78.4,-63.68 85.25,-62.25"/>
<text xml:space="preserve" text-anchor="middle" x="160.52" y="-103.3" font-family="Arial" font-size="11.00">hasPrimaryRepresentation</text>
</g>
<!-- LinearLocation&#45;&gt;LinearRepresentation -->
<g id="edge5" class="edge">
<title>LinearLocation&#45;&gt;LinearRepresentation</title>
<path fill="none" stroke="black" d="M147.67,-175.38C175.73,-170.52 210.81,-159.23 229,-133 240.15,-116.93 240.29,-104.96 229,-89 210.24,-62.48 177.32,-48.89 146.82,-41.97"/>
<polygon fill="black" stroke="black" points="147.7,-38.58 137.21,-40.01 146.31,-45.44 147.7,-38.58"/>
<text xml:space="preserve" text-anchor="middle" x="308.29" y="-103.3" font-family="Arial" font-size="11.00">hasAlternativeRepresentation</text>
</g>
<!-- Invis&#45;&gt;LinearRepresentation -->
</g>
</svg>
