<?xml version="1.0" encoding="UTF-8" standalone="no"?>
<!DOCTYPE svg PUBLIC "-//W3C//DTD SVG 1.1//EN"
 "http://www.w3.org/Graphics/SVG/1.1/DTD/svg11.dtd">
<!-- Generated by graphviz version 14.1.3 (20260303.0454)
 -->
<!-- Pages: 1 -->
<svg width="285pt" height="132pt"
 viewBox="0.00 0.00 285.00 132.00" xmlns="http://www.w3.org/2000/svg" xmlns:xlink="http://www.w3.org/1999/xlink">
<g id="graph0" class="graph" transform="scale(1 1) rotate(0) translate(4 128)">
<polygon fill="white" stroke="none" points="-4,4 -4,-128 280.75,-128 280.75,4 -4,4"/>
<g id="clust3" class="cluster">
<title>cluster_associated</title>
</g>
<!-- LinearRepresentation -->
<g id="node1" class="node">
<title>LinearRepresentation</title>
<g id="a_node1"><a xlink:href="../LinearRepresentation" xlink:title="&lt;TABLE&gt;">
<polygon fill="lightgray" stroke="none" points="1,-97.88 1,-114.12 118.5,-114.12 118.5,-97.88 1,-97.88"/>
<text xml:space="preserve" text-anchor="start" x="2" y="-101.88" font-family="Arial" font-size="12.00">LinearRepresentation</text>
<polygon fill="none" stroke="black" points="0,-96.88 0,-115.12 119.5,-115.12 119.5,-96.88 0,-96.88"/>
</a>
</g>
</g>
<!-- sf_MultiLineString -->
<g id="node2" class="node">
<title>sf_MultiLineString</title>
<g id="a_node2"><a xlink:href="https://w3id.org/citydata/imported/sf/latest/MultiLineString" xlink:title="&lt;TABLE&gt;">
<polygon fill="lightgray" stroke="none" points="138.62,-97.88 138.62,-114.12 232.88,-114.12 232.88,-97.88 138.62,-97.88"/>
<text xml:space="preserve" text-anchor="start" x="139.62" y="-101.88" font-family="Arial" font-size="12.00">sf:MultiLineString</text>
<polygon fill="none" stroke="black" points="137.62,-96.88 137.62,-115.12 233.88,-115.12 233.88,-96.88 137.62,-96.88"/>
</a>
</g>
</g>
<!-- LinearByMultiLineString -->
<g id="node3" class="node">
<title>LinearByMultiLineString</title>
<g id="a_node3"><a xlink:href="../LinearByMultiLineString" xlink:title="&lt;TABLE&gt;">
<polygon fill="lightgray" stroke="none" points="57.62,-25.88 57.62,-42.12 187.88,-42.12 187.88,-25.88 57.62,-25.88"/>
<text xml:space="preserve" text-anchor="start" x="58.62" y="-29.88" font-family="Arial" font-size="12.00">LinearByMultiLineString</text>
<polygon fill="none" stroke="black" points="56.62,-24.88 56.62,-43.12 188.88,-43.12 188.88,-24.88 56.62,-24.88"/>
</a>
</g>
</g>
<!-- LinearByMultiLineString&#45;&gt;LinearRepresentation -->
<g id="edge1" class="edge">
<title>LinearByMultiLineString&#45;&gt;LinearRepresentation</title>
<path fill="none" stroke="black" d="M107.64,-51.79C100.15,-60.11 90.96,-70.32 82.63,-79.58"/>
<polygon fill="none" stroke="black" points="80.1,-77.16 76.01,-86.93 85.3,-81.84 80.1,-77.16"/>
</g>
<!-- LinearByMultiLineString&#45;&gt;sf_MultiLineString -->
<g id="edge2" class="edge">
<title>LinearByMultiLineString&#45;&gt;sf_MultiLineString</title>
<path fill="none" stroke="black" d="M137.86,-51.79C145.35,-60.11 154.54,-70.32 162.87,-79.58"/>
<polygon fill="none" stroke="black" points="160.2,-81.84 169.49,-86.93 165.4,-77.16 160.2,-81.84"/>
</g>
<!-- Invis -->
</g>
</svg>
