<?xml version="1.0" encoding="UTF-8" standalone="no"?>
<!DOCTYPE svg PUBLIC "-//W3C//DTD SVG 1.1//EN"
 "http://www.w3.org/Graphics/SVG/1.1/DTD/svg11.dtd">
<!-- Generated by graphviz version 14.1.3 (20260303.0454)
 -->
<!-- Pages: 1 -->
<svg width="265pt" height="132pt"
 viewBox="0.00 0.00 265.00 132.00" xmlns="http://www.w3.org/2000/svg" xmlns:xlink="http://www.w3.org/1999/xlink">
<g id="graph0" class="graph" transform="scale(1 1) rotate(0) translate(4 128)">
<polygon fill="white" stroke="none" points="-4,4 -4,-128 260.75,-128 260.75,4 -4,4"/>
<g id="clust3" class="cluster">
<title>cluster_associated</title>
</g>
<!-- LinearRepresentation -->
<g id="node1" class="node">
<title>LinearRepresentation</title>
<g id="a_node1"><a xlink:href="../LinearRepresentation" xlink:title="&lt;TABLE&gt;">
<polygon fill="lightgray" stroke="none" points="1,-97.88 1,-114.12 118.5,-114.12 118.5,-97.88 1,-97.88"/>
<text xml:space="preserve" text-anchor="start" x="2" y="-101.88" font-family="Arial" font-size="12.00">LinearRepresentation</text>
<polygon fill="none" stroke="black" points="0,-96.88 0,-115.12 119.5,-115.12 119.5,-96.88 0,-96.88"/>
</a>
</g>
</g>
<!-- sf_LineString -->
<g id="node2" class="node">
<title>sf_LineString</title>
<g id="a_node2"><a xlink:href="https://w3id.org/citydata/imported/sf/latest/LineString" xlink:title="&lt;TABLE&gt;">
<polygon fill="lightgray" stroke="none" points="138.38,-97.88 138.38,-114.12 207.12,-114.12 207.12,-97.88 138.38,-97.88"/>
<text xml:space="preserve" text-anchor="start" x="139.38" y="-101.88" font-family="Arial" font-size="12.00">sf:LineString</text>
<polygon fill="none" stroke="black" points="137.38,-96.88 137.38,-115.12 208.12,-115.12 208.12,-96.88 137.38,-96.88"/>
</a>
</g>
</g>
<!-- LinearByLineString -->
<g id="node3" class="node">
<title>LinearByLineString</title>
<g id="a_node3"><a xlink:href="../LinearByLineString" xlink:title="&lt;TABLE&gt;">
<polygon fill="lightgray" stroke="none" points="63.38,-25.88 63.38,-42.12 168.12,-42.12 168.12,-25.88 63.38,-25.88"/>
<text xml:space="preserve" text-anchor="start" x="64.38" y="-29.88" font-family="Arial" font-size="12.00">LinearByLineString</text>
<polygon fill="none" stroke="black" points="62.38,-24.88 62.38,-43.12 169.12,-43.12 169.12,-24.88 62.38,-24.88"/>
</a>
</g>
</g>
<!-- LinearByLineString&#45;&gt;LinearRepresentation -->
<g id="edge1" class="edge">
<title>LinearByLineString&#45;&gt;LinearRepresentation</title>
<path fill="none" stroke="black" d="M102.32,-51.79C95.73,-60.02 87.66,-70.11 80.32,-79.29"/>
<polygon fill="none" stroke="black" points="77.77,-76.88 74.25,-86.87 83.23,-81.25 77.77,-76.88"/>
</g>
<!-- LinearByLineString&#45;&gt;sf_LineString -->
<g id="edge2" class="edge">
<title>LinearByLineString&#45;&gt;sf_LineString</title>
<path fill="none" stroke="black" d="M129.42,-51.79C136.12,-60.02 144.34,-70.11 151.81,-79.29"/>
<polygon fill="none" stroke="black" points="148.97,-81.34 158,-86.88 154.4,-76.92 148.97,-81.34"/>
</g>
<!-- Invis -->
</g>
</svg>
