<?xml version="1.0" encoding="UTF-8" standalone="no"?>
<!DOCTYPE svg PUBLIC "-//W3C//DTD SVG 1.1//EN"
 "http://www.w3.org/Graphics/SVG/1.1/DTD/svg11.dtd">
<!-- Generated by graphviz version 14.1.3 (20260303.0454)
 -->
<!-- Pages: 1 -->
<svg width="255pt" height="132pt"
 viewBox="0.00 0.00 255.00 132.00" xmlns="http://www.w3.org/2000/svg" xmlns:xlink="http://www.w3.org/1999/xlink">
<g id="graph0" class="graph" transform="scale(1 1) rotate(0) translate(4 128)">
<polygon fill="white" stroke="none" points="-4,4 -4,-128 250.75,-128 250.75,4 -4,4"/>
<g id="clust3" class="cluster">
<title>cluster_associated</title>
</g>
<!-- LinearRepresentation -->
<g id="node1" class="node">
<title>LinearRepresentation</title>
<g id="a_node1"><a xlink:href="../LinearRepresentation" xlink:title="&lt;TABLE&gt;">
<polygon fill="lightgray" stroke="none" points="1,-97.88 1,-114.12 118.5,-114.12 118.5,-97.88 1,-97.88"/>
<text xml:space="preserve" text-anchor="start" x="2" y="-101.88" font-family="Arial" font-size="12.00">LinearRepresentation</text>
<polygon fill="none" stroke="black" points="0,-96.88 0,-115.12 119.5,-115.12 119.5,-96.88 0,-96.88"/>
</a>
</g>
</g>
<!-- LocationCode -->
<g id="node2" class="node">
<title>LocationCode</title>
<g id="a_node2"><a xlink:href="../LocationCode" xlink:title="&lt;TABLE&gt;">
<polygon fill="lightgray" stroke="none" points="138.25,-97.88 138.25,-114.12 215.25,-114.12 215.25,-97.88 138.25,-97.88"/>
<text xml:space="preserve" text-anchor="start" x="139.25" y="-101.88" font-family="Arial" font-size="12.00">LocationCode</text>
<polygon fill="none" stroke="black" points="137.25,-96.88 137.25,-115.12 216.25,-115.12 216.25,-96.88 137.25,-96.88"/>
</a>
</g>
</g>
<!-- LinearByCode -->
<g id="node3" class="node">
<title>LinearByCode</title>
<g id="a_node3"><a xlink:href="../LinearByCode" xlink:title="&lt;TABLE&gt;">
<polygon fill="lightgray" stroke="none" points="78.12,-25.88 78.12,-42.12 157.38,-42.12 157.38,-25.88 78.12,-25.88"/>
<text xml:space="preserve" text-anchor="start" x="79.12" y="-29.88" font-family="Arial" font-size="12.00">LinearByCode</text>
<polygon fill="none" stroke="black" points="77.12,-24.88 77.12,-43.12 158.38,-43.12 158.38,-24.88 77.12,-24.88"/>
</a>
</g>
</g>
<!-- LinearByCode&#45;&gt;LinearRepresentation -->
<g id="edge1" class="edge">
<title>LinearByCode&#45;&gt;LinearRepresentation</title>
<path fill="none" stroke="black" d="M103.84,-51.79C97.02,-60.02 88.66,-70.11 81.05,-79.29"/>
<polygon fill="none" stroke="black" points="78.44,-76.96 74.76,-86.89 83.83,-81.42 78.44,-76.96"/>
</g>
<!-- LinearByCode&#45;&gt;LocationCode -->
<g id="edge2" class="edge">
<title>LinearByCode&#45;&gt;LocationCode</title>
<path fill="none" stroke="black" d="M131.9,-51.79C138.84,-60.02 147.35,-70.11 155.08,-79.29"/>
<polygon fill="none" stroke="black" points="152.37,-81.51 161.49,-86.9 157.72,-77 152.37,-81.51"/>
</g>
<!-- Invis -->
</g>
</svg>
