<?xml version="1.0" encoding="UTF-8" standalone="no"?>
<!DOCTYPE svg PUBLIC "-//W3C//DTD SVG 1.1//EN"
 "http://www.w3.org/Graphics/SVG/1.1/DTD/svg11.dtd">
<!-- Generated by graphviz version 14.1.3 (20260303.0454)
 -->
<!-- Pages: 1 -->
<svg width="216pt" height="132pt"
 viewBox="0.00 0.00 216.00 132.00" xmlns="http://www.w3.org/2000/svg" xmlns:xlink="http://www.w3.org/1999/xlink">
<g id="graph0" class="graph" transform="scale(1 1) rotate(0) translate(4 128)">
<polygon fill="white" stroke="none" points="-4,4 -4,-128 211.75,-128 211.75,4 -4,4"/>
<g id="clust3" class="cluster">
<title>cluster_associated</title>
</g>
<!-- Geometry -->
<g id="node1" class="node">
<title>Geometry</title>
<g id="a_node1"><a xlink:href="../Geometry" xlink:title="&lt;TABLE&gt;">
<polygon fill="lightgray" stroke="none" points="32.88,-97.88 32.88,-114.12 86.62,-114.12 86.62,-97.88 32.88,-97.88"/>
<text xml:space="preserve" text-anchor="start" x="33.88" y="-101.88" font-family="Arial" font-size="12.00">Geometry</text>
<polygon fill="none" stroke="black" points="31.88,-96.88 31.88,-115.12 87.62,-115.12 87.62,-96.88 31.88,-96.88"/>
</a>
</g>
</g>
<!-- LinearRepresentation -->
<g id="node2" class="node">
<title>LinearRepresentation</title>
<g id="a_node2"><a xlink:href="../LinearRepresentation" xlink:title="&lt;TABLE&gt;">
<polygon fill="lightgray" stroke="none" points="1,-25.88 1,-42.12 118.5,-42.12 118.5,-25.88 1,-25.88"/>
<text xml:space="preserve" text-anchor="start" x="2" y="-29.88" font-family="Arial" font-size="12.00">LinearRepresentation</text>
<polygon fill="none" stroke="black" points="0,-24.88 0,-43.12 119.5,-43.12 119.5,-24.88 0,-24.88"/>
</a>
</g>
</g>
<!-- LinearRepresentation&#45;&gt;Geometry -->
<g id="edge1" class="edge">
<title>LinearRepresentation&#45;&gt;Geometry</title>
<path fill="none" stroke="black" d="M59.75,-51.79C59.75,-59.25 59.75,-68.24 59.75,-76.69"/>
<polygon fill="none" stroke="black" points="56.25,-76.54 59.75,-86.54 63.25,-76.54 56.25,-76.54"/>
</g>
<!-- Invis -->
</g>
</svg>
