<?xml version="1.0" encoding="UTF-8" standalone="no"?>
<!DOCTYPE svg PUBLIC "-//W3C//DTD SVG 1.1//EN"
 "http://www.w3.org/Graphics/SVG/1.1/DTD/svg11.dtd">
<!-- Generated by graphviz version 14.1.3 (20260303.0454)
 -->
<!-- Pages: 1 -->
<svg width="164pt" height="132pt"
 viewBox="0.00 0.00 164.00 132.00" xmlns="http://www.w3.org/2000/svg" xmlns:xlink="http://www.w3.org/1999/xlink">
<g id="graph0" class="graph" transform="scale(1 1) rotate(0) translate(4 128)">
<polygon fill="white" stroke="none" points="-4,4 -4,-128 160.25,-128 160.25,4 -4,4"/>
<g id="clust3" class="cluster">
<title>cluster_associated</title>
</g>
<!-- rdf_List -->
<g id="node1" class="node">
<title>rdf_List</title>
<g id="a_node1"><a xlink:href="https://w3id.org/citydata/imported/rdf/latest/List" xlink:title="&lt;TABLE&gt;">
<polygon fill="lightgray" stroke="none" points="15.62,-97.88 15.62,-114.12 52.88,-114.12 52.88,-97.88 15.62,-97.88"/>
<text xml:space="preserve" text-anchor="start" x="16.62" y="-101.88" font-family="Arial" font-size="12.00">rdf:List</text>
<polygon fill="none" stroke="black" points="14.62,-96.88 14.62,-115.12 53.88,-115.12 53.88,-96.88 14.62,-96.88"/>
</a>
</g>
</g>
<!-- LocationList -->
<g id="node2" class="node">
<title>LocationList</title>
<g id="a_node2"><a xlink:href="../LocationList" xlink:title="&lt;TABLE&gt;">
<polygon fill="lightgray" stroke="none" points="1,-34 1,-50.25 67.5,-50.25 67.5,-34 1,-34"/>
<text xml:space="preserve" text-anchor="start" x="2" y="-38" font-family="Arial" font-size="12.00">LocationList</text>
<text xml:space="preserve" text-anchor="start" x="2" y="-21.75" font-family="Arial" font-size="12.00">rdf:first</text>
<polygon fill="none" stroke="black" points="0,-16.75 0,-51.25 68.5,-51.25 68.5,-16.75 0,-16.75"/>
</a>
</g>
</g>
<!-- LocationList&#45;&gt;rdf_List -->
<g id="edge1" class="edge">
<title>LocationList&#45;&gt;rdf_List</title>
<path fill="none" stroke="black" d="M34.25,-51.79C34.25,-59.25 34.25,-68.24 34.25,-76.69"/>
<polygon fill="none" stroke="black" points="30.75,-76.54 34.25,-86.54 37.75,-76.54 30.75,-76.54"/>
</g>
<!-- Invis -->
</g>
</svg>
