<?xml version="1.0" encoding="UTF-8" standalone="no"?>
<!DOCTYPE svg PUBLIC "-//W3C//DTD SVG 1.1//EN"
 "http://www.w3.org/Graphics/SVG/1.1/DTD/svg11.dtd">
<!-- Generated by graphviz version 14.1.3 (20260303.0454)
 -->
<!-- Pages: 1 -->
<svg width="148pt" height="279pt"
 viewBox="0.00 0.00 148.00 279.00" xmlns="http://www.w3.org/2000/svg" xmlns:xlink="http://www.w3.org/1999/xlink">
<g id="graph0" class="graph" transform="scale(1 1) rotate(0) translate(4 275)">
<polygon fill="white" stroke="none" points="-4,4 -4,-275 144.12,-275 144.12,4 -4,4"/>
<g id="clust3" class="cluster">
<title>cluster_associated</title>
</g>
<!-- Feature -->
<g id="node1" class="node">
<title>Feature</title>
<g id="a_node1"><a xlink:href="../Feature" xlink:title="&lt;TABLE&gt;">
<polygon fill="lightgray" stroke="none" points="52.38,-244.88 52.38,-261.12 95.62,-261.12 95.62,-244.88 52.38,-244.88"/>
<text xml:space="preserve" text-anchor="start" x="53.38" y="-248.88" font-family="Arial" font-size="12.00">Feature</text>
<polygon fill="none" stroke="black" points="51.38,-243.88 51.38,-262.12 96.62,-262.12 96.62,-243.88 51.38,-243.88"/>
</a>
</g>
</g>
<!-- LocationGroup -->
<g id="node2" class="node">
<title>LocationGroup</title>
<g id="a_node2"><a xlink:href="../LocationGroup" xlink:title="&lt;TABLE&gt;">
<polygon fill="lightgray" stroke="none" points="33.62,-171.88 33.62,-188.12 114.38,-188.12 114.38,-171.88 33.62,-171.88"/>
<text xml:space="preserve" text-anchor="start" x="34.62" y="-175.88" font-family="Arial" font-size="12.00">LocationGroup</text>
<polygon fill="none" stroke="black" points="32.62,-170.88 32.62,-189.12 115.38,-189.12 115.38,-170.88 32.62,-170.88"/>
</a>
</g>
</g>
<!-- LocationGroup&#45;&gt;Feature -->
<g id="edge1" class="edge">
<title>LocationGroup&#45;&gt;Feature</title>
<path fill="none" stroke="black" d="M74,-197.71C74,-205.47 74,-214.92 74,-223.74"/>
<polygon fill="none" stroke="black" points="70.5,-223.66 74,-233.66 77.5,-223.66 70.5,-223.66"/>
</g>
<!-- Invis -->
<!-- LocationGroup&#45;&gt;Invis -->
<!-- Location -->
<g id="node4" class="node">
<title>Location</title>
<g id="a_node4"><a xlink:href="../Location" xlink:title="&lt;TABLE&gt;">
<polygon fill="lightgray" stroke="none" points="19.12,-25.88 19.12,-42.12 66.88,-42.12 66.88,-25.88 19.12,-25.88"/>
<text xml:space="preserve" text-anchor="start" x="20.12" y="-29.88" font-family="Arial" font-size="12.00">Location</text>
<polygon fill="none" stroke="black" points="18.12,-24.88 18.12,-43.12 67.88,-43.12 67.88,-24.88 18.12,-24.88"/>
</a>
</g>
</g>
<!-- LocationGroup&#45;&gt;Location -->
<g id="edge4" class="edge">
<title>LocationGroup&#45;&gt;Location</title>
<path fill="none" stroke="black" d="M78.35,-162C82.29,-143.59 86.44,-113.56 79,-89 76,-79.08 70.5,-69.31 64.7,-60.88"/>
<polygon fill="black" stroke="black" points="67.53,-58.82 58.77,-52.86 61.9,-62.98 67.53,-58.82"/>
<text xml:space="preserve" text-anchor="middle" x="111.62" y="-110.05" font-family="Arial" font-size="11.00">hasMember</text>
<text xml:space="preserve" text-anchor="middle" x="111.62" y="-96.55" font-family="Arial" font-size="11.00">2..*</text>
</g>
<!-- Invis&#45;&gt;Location -->
</g>
</svg>
