<?xml version="1.0" encoding="UTF-8" standalone="no"?>
<!DOCTYPE svg PUBLIC "-//W3C//DTD SVG 1.1//EN"
 "http://www.w3.org/Graphics/SVG/1.1/DTD/svg11.dtd">
<!-- Generated by graphviz version 14.1.3 (20260303.0454)
 -->
<!-- Pages: 1 -->
<svg width="549pt" height="523pt"
 viewBox="0.00 0.00 549.00 523.00" xmlns="http://www.w3.org/2000/svg" xmlns:xlink="http://www.w3.org/1999/xlink">
<g id="graph0" class="graph" transform="scale(1 1) rotate(0) translate(4 519)">
<polygon fill="white" stroke="none" points="-4,4 -4,-519 544.75,-519 544.75,4 -4,4"/>
<g id="clust3" class="cluster">
<title>cluster_associated</title>
</g>
<!-- CoordinateGeometry -->
<g id="node1" class="node">
<title>CoordinateGeometry</title>
<g id="a_node1"><a xlink:href="../CoordinateGeometry" xlink:title="&lt;TABLE&gt;">
<polygon fill="lightgray" stroke="none" points="73.5,-488.88 73.5,-505.12 186.5,-505.12 186.5,-488.88 73.5,-488.88"/>
<text xml:space="preserve" text-anchor="start" x="74.5" y="-492.88" font-family="Arial" font-size="12.00">CoordinateGeometry</text>
<polygon fill="none" stroke="black" points="72.5,-487.88 72.5,-506.12 187.5,-506.12 187.5,-487.88 72.5,-487.88"/>
</a>
</g>
</g>
<!-- PointRepresentation -->
<g id="node2" class="node">
<title>PointRepresentation</title>
<g id="a_node2"><a xlink:href="../PointRepresentation" xlink:title="&lt;TABLE&gt;">
<polygon fill="lightgray" stroke="none" points="206.25,-488.88 206.25,-505.12 317.75,-505.12 317.75,-488.88 206.25,-488.88"/>
<text xml:space="preserve" text-anchor="start" x="207.25" y="-492.88" font-family="Arial" font-size="12.00">PointRepresentation</text>
<polygon fill="none" stroke="black" points="205.25,-487.88 205.25,-506.12 318.75,-506.12 318.75,-487.88 205.25,-487.88"/>
</a>
</g>
</g>
<!-- PointByCoordinates -->
<g id="node3" class="node">
<title>PointByCoordinates</title>
<g id="a_node3"><a xlink:href="../PointByCoordinates" xlink:title="&lt;TABLE&gt;">
<polygon fill="lightgray" stroke="none" points="141.38,-415.88 141.38,-432.12 250.62,-432.12 250.62,-415.88 141.38,-415.88"/>
<text xml:space="preserve" text-anchor="start" x="142.38" y="-419.88" font-family="Arial" font-size="12.00">PointByCoordinates</text>
<polygon fill="none" stroke="black" points="140.38,-414.88 140.38,-433.12 251.62,-433.12 251.62,-414.88 140.38,-414.88"/>
</a>
</g>
</g>
<!-- PointByCoordinates&#45;&gt;CoordinateGeometry -->
<g id="edge1" class="edge">
<title>PointByCoordinates&#45;&gt;CoordinateGeometry</title>
<path fill="none" stroke="black" d="M180.47,-441.71C172.35,-450.44 162.25,-461.31 153.22,-471.02"/>
<polygon fill="none" stroke="black" points="150.92,-468.36 146.67,-478.07 156.04,-473.12 150.92,-468.36"/>
</g>
<!-- PointByCoordinates&#45;&gt;PointRepresentation -->
<g id="edge2" class="edge">
<title>PointByCoordinates&#45;&gt;PointRepresentation</title>
<path fill="none" stroke="black" d="M211.53,-441.71C219.65,-450.44 229.75,-461.31 238.78,-471.02"/>
<polygon fill="none" stroke="black" points="235.96,-473.12 245.33,-478.07 241.08,-468.36 235.96,-473.12"/>
</g>
<!-- Invis -->
<!-- PointByCoordinates&#45;&gt;Invis -->
<!-- Elevation -->
<g id="node5" class="node">
<title>Elevation</title>
<g id="a_node5"><a xlink:href="../Elevation" xlink:title="&lt;TABLE&gt;">
<polygon fill="lightgray" stroke="none" points="68.88,-257.38 68.88,-273.62 121.12,-273.62 121.12,-257.38 68.88,-257.38"/>
<text xml:space="preserve" text-anchor="start" x="69.88" y="-261.38" font-family="Arial" font-size="12.00">Elevation</text>
<polygon fill="none" stroke="black" points="67.88,-256.38 67.88,-274.62 122.12,-274.62 122.12,-256.38 67.88,-256.38"/>
</a>
</g>
</g>
<!-- PointByCoordinates&#45;&gt;Elevation -->
<g id="edge10" class="edge">
<title>PointByCoordinates&#45;&gt;Elevation</title>
<path fill="none" stroke="black" d="M155.28,-406C142.43,-398.8 129.3,-389.2 120.5,-377 103.03,-352.8 97.31,-318.52 95.55,-294.58"/>
<polygon fill="black" stroke="black" points="99.05,-294.42 95.03,-284.62 92.06,-294.79 99.05,-294.42"/>
<text xml:space="preserve" text-anchor="middle" x="151.25" y="-347.3" font-family="Arial" font-size="11.00">hasElevation</text>
</g>
<!-- ElevationAccuracy -->
<g id="node6" class="node">
<title>ElevationAccuracy</title>
<g id="a_node6"><a xlink:href="../ElevationAccuracy" xlink:title="&lt;TABLE&gt;">
<polygon fill="lightgray" stroke="none" points="52.12,-171.88 52.12,-188.12 153.88,-188.12 153.88,-171.88 52.12,-171.88"/>
<text xml:space="preserve" text-anchor="start" x="53.12" y="-175.88" font-family="Arial" font-size="12.00">ElevationAccuracy</text>
<polygon fill="none" stroke="black" points="51.12,-170.88 51.12,-189.12 154.88,-189.12 154.88,-170.88 51.12,-170.88"/>
</a>
</g>
</g>
<!-- PointByCoordinates&#45;&gt;ElevationAccuracy -->
<g id="edge11" class="edge">
<title>PointByCoordinates&#45;&gt;ElevationAccuracy</title>
<path fill="none" stroke="black" d="M197.47,-406.19C198.31,-386.86 196.95,-354.96 182,-333 173.09,-319.91 161.04,-327.45 151.25,-315 131.89,-290.38 141.59,-276.98 131,-247.5 126.26,-234.32 120.33,-219.97 115.14,-207.99"/>
<polygon fill="black" stroke="black" points="118.47,-206.88 111.25,-199.13 112.07,-209.7 118.47,-206.88"/>
<text xml:space="preserve" text-anchor="middle" x="204.12" y="-304.55" font-family="Arial" font-size="11.00">hasElevationAccuracy</text>
</g>
<!-- PositionAccuracy -->
<g id="node7" class="node">
<title>PositionAccuracy</title>
<g id="a_node7"><a xlink:href="../PositionAccuracy" xlink:title="&lt;TABLE&gt;">
<polygon fill="lightgray" stroke="none" points="55.5,-98.88 55.5,-115.12 150.5,-115.12 150.5,-98.88 55.5,-98.88"/>
<text xml:space="preserve" text-anchor="start" x="56.5" y="-102.88" font-family="Arial" font-size="12.00">PositionAccuracy</text>
<polygon fill="none" stroke="black" points="54.5,-97.88 54.5,-116.12 151.5,-116.12 151.5,-97.88 54.5,-97.88"/>
</a>
</g>
</g>
<!-- PointByCoordinates&#45;&gt;PositionAccuracy -->
<g id="edge8" class="edge">
<title>PointByCoordinates&#45;&gt;PositionAccuracy</title>
<path fill="none" stroke="black" d="M231.3,-406.09C250.76,-394.08 271,-375.85 271,-352 271,-352 271,-352 271,-179 271,-130.48 210.82,-114.61 162.5,-109.68"/>
<polygon fill="black" stroke="black" points="162.92,-106.21 152.65,-108.83 162.31,-113.18 162.92,-106.21"/>
<text xml:space="preserve" text-anchor="middle" x="320.88" y="-261.8" font-family="Arial" font-size="11.00">hasPositionAccuracy</text>
</g>
<!-- PositionConfidenceEllipse -->
<g id="node8" class="node">
<title>PositionConfidenceEllipse</title>
<g id="a_node8"><a xlink:href="../PositionConfidenceEllipse" xlink:title="&lt;TABLE&gt;">
<polygon fill="lightgray" stroke="none" points="17.12,-25.88 17.12,-42.12 160.88,-42.12 160.88,-25.88 17.12,-25.88"/>
<text xml:space="preserve" text-anchor="start" x="18.12" y="-29.88" font-family="Arial" font-size="12.00">PositionConfidenceEllipse</text>
<polygon fill="none" stroke="black" points="16.12,-24.88 16.12,-43.12 161.88,-43.12 161.88,-24.88 16.12,-24.88"/>
</a>
</g>
</g>
<!-- PointByCoordinates&#45;&gt;PositionConfidenceEllipse -->
<g id="edge9" class="edge">
<title>PointByCoordinates&#45;&gt;PositionConfidenceEllipse</title>
<path fill="none" stroke="black" d="M251.47,-414.72C311.58,-404.14 399,-383.36 399,-352 399,-352 399,-352 399,-106 399,-59.49 264.74,-43.45 172.93,-37.91"/>
<polygon fill="black" stroke="black" points="173.37,-34.43 163.19,-37.36 172.98,-41.42 173.37,-34.43"/>
<text xml:space="preserve" text-anchor="middle" x="469.88" y="-219.05" font-family="Arial" font-size="11.00">hasPositionConfidenceEllipse</text>
</g>
<!-- Invis&#45;&gt;Elevation -->
<!-- Elevation&#45;&gt;ElevationAccuracy -->
<!-- ElevationAccuracy&#45;&gt;PositionAccuracy -->
<!-- PositionAccuracy&#45;&gt;PositionConfidenceEllipse -->
</g>
</svg>
