<?xml version="1.0" encoding="UTF-8" standalone="no"?>
<!DOCTYPE svg PUBLIC "-//W3C//DTD SVG 1.1//EN"
 "http://www.w3.org/Graphics/SVG/1.1/DTD/svg11.dtd">
<!-- Generated by graphviz version 14.1.3 (20260303.0454)
 -->
<!-- Pages: 1 -->
<svg width="230pt" height="139pt"
 viewBox="0.00 0.00 230.00 139.00" xmlns="http://www.w3.org/2000/svg" xmlns:xlink="http://www.w3.org/1999/xlink">
<g id="graph0" class="graph" transform="scale(1 1) rotate(0) translate(4 135.38)">
<polygon fill="white" stroke="none" points="-4,4 -4,-135.38 225.88,-135.38 225.88,4 -4,4"/>
<g id="clust3" class="cluster">
<title>cluster_associated</title>
</g>
<!-- PointByCoordinates -->
<g id="node1" class="node">
<title>PointByCoordinates</title>
<g id="a_node1"><a xlink:href="../PointByCoordinates" xlink:title="&lt;TABLE&gt;">
<polygon fill="lightgray" stroke="none" points="12.25,-105.25 12.25,-121.5 121.5,-121.5 121.5,-105.25 12.25,-105.25"/>
<text xml:space="preserve" text-anchor="start" x="13.25" y="-109.25" font-family="Arial" font-size="12.00">PointByCoordinates</text>
<polygon fill="none" stroke="black" points="11.25,-104.25 11.25,-122.5 122.5,-122.5 122.5,-104.25 11.25,-104.25"/>
</a>
</g>
</g>
<!-- PointByGeoCoordinates -->
<g id="node2" class="node">
<title>PointByGeoCoordinates</title>
<g id="a_node2"><a xlink:href="../PointByGeoCoordinates" xlink:title="&lt;TABLE&gt;">
<polygon fill="lightgray" stroke="none" points="1,-42.12 1,-58.38 132.75,-58.38 132.75,-42.12 1,-42.12"/>
<text xml:space="preserve" text-anchor="start" x="2" y="-46.12" font-family="Arial" font-size="12.00">PointByGeoCoordinates</text>
<text xml:space="preserve" text-anchor="start" x="2" y="-29.88" font-family="Arial" font-size="12.00">latitude : xsd:decimal</text>
<text xml:space="preserve" text-anchor="start" x="2" y="-13.62" font-family="Arial" font-size="12.00">longitude : xsd:decimal</text>
<polygon fill="none" stroke="black" points="0,-8.62 0,-59.38 133.75,-59.38 133.75,-8.62 0,-8.62"/>
</a>
</g>
</g>
<!-- PointByGeoCoordinates&#45;&gt;PointByCoordinates -->
<g id="edge1" class="edge">
<title>PointByGeoCoordinates&#45;&gt;PointByCoordinates</title>
<path fill="none" stroke="black" d="M66.88,-59.1C66.88,-67.05 66.88,-75.97 66.88,-84.21"/>
<polygon fill="none" stroke="black" points="63.38,-84.07 66.88,-94.07 70.38,-84.07 63.38,-84.07"/>
</g>
<!-- Invis -->
</g>
</svg>
