<?xml version="1.0" encoding="UTF-8" standalone="no"?>
<!DOCTYPE svg PUBLIC "-//W3C//DTD SVG 1.1//EN"
 "http://www.w3.org/Graphics/SVG/1.1/DTD/svg11.dtd">
<!-- Generated by graphviz version 14.1.3 (20260303.0454)
 -->
<!-- Pages: 1 -->
<svg width="459pt" height="438pt"
 viewBox="0.00 0.00 459.00 438.00" xmlns="http://www.w3.org/2000/svg" xmlns:xlink="http://www.w3.org/1999/xlink">
<g id="graph0" class="graph" transform="scale(1 1) rotate(0) translate(4 433.5)">
<polygon fill="white" stroke="none" points="-4,4 -4,-433.5 455.25,-433.5 455.25,4 -4,4"/>
<g id="clust3" class="cluster">
<title>cluster_associated</title>
</g>
<!-- PointRepresentation -->
<g id="node1" class="node">
<title>PointRepresentation</title>
<g id="a_node1"><a xlink:href="../PointRepresentation" xlink:title="&lt;TABLE&gt;">
<polygon fill="lightgray" stroke="none" points="208.25,-403.38 208.25,-419.62 319.75,-419.62 319.75,-403.38 208.25,-403.38"/>
<text xml:space="preserve" text-anchor="start" x="209.25" y="-407.38" font-family="Arial" font-size="12.00">PointRepresentation</text>
<polygon fill="none" stroke="black" points="207.25,-402.38 207.25,-420.62 320.75,-420.62 320.75,-402.38 207.25,-402.38"/>
</a>
</g>
</g>
<!-- PointByLinearPosition -->
<g id="node2" class="node">
<title>PointByLinearPosition</title>
<g id="a_node2"><a xlink:href="../PointByLinearPosition" xlink:title="&lt;TABLE&gt;">
<polygon fill="lightgray" stroke="none" points="203.38,-330.38 203.38,-346.62 324.62,-346.62 324.62,-330.38 203.38,-330.38"/>
<text xml:space="preserve" text-anchor="start" x="204.38" y="-334.38" font-family="Arial" font-size="12.00">PointByLinearPosition</text>
<polygon fill="none" stroke="black" points="202.38,-329.38 202.38,-347.62 325.62,-347.62 325.62,-329.38 202.38,-329.38"/>
</a>
</g>
</g>
<!-- PointByLinearPosition&#45;&gt;PointRepresentation -->
<g id="edge1" class="edge">
<title>PointByLinearPosition&#45;&gt;PointRepresentation</title>
<path fill="none" stroke="black" d="M264,-356.21C264,-363.97 264,-373.42 264,-382.24"/>
<polygon fill="none" stroke="black" points="260.5,-382.16 264,-392.16 267.5,-382.16 260.5,-382.16"/>
</g>
<!-- Invis -->
<!-- PointByLinearPosition&#45;&gt;Invis -->
<!-- LinearByPoints -->
<g id="node4" class="node">
<title>LinearByPoints</title>
<g id="a_node4"><a xlink:href="../LinearByPoints" xlink:title="&lt;TABLE&gt;">
<polygon fill="lightgray" stroke="none" points="17.12,-171.88 17.12,-188.12 100.88,-188.12 100.88,-171.88 17.12,-171.88"/>
<text xml:space="preserve" text-anchor="start" x="18.12" y="-175.88" font-family="Arial" font-size="12.00">LinearByPoints</text>
<polygon fill="none" stroke="black" points="16.12,-170.88 16.12,-189.12 101.88,-189.12 101.88,-170.88 16.12,-170.88"/>
</a>
</g>
</g>
<!-- PointByLinearPosition&#45;&gt;LinearByPoints -->
<g id="edge6" class="edge">
<title>PointByLinearPosition&#45;&gt;LinearByPoints</title>
<path fill="none" stroke="black" d="M202.41,-328.4C174.92,-321.84 143.54,-310.62 120.25,-291.5 93.78,-269.78 76.82,-233.47 67.61,-208.43"/>
<polygon fill="black" stroke="black" points="71.01,-207.54 64.42,-199.24 64.4,-209.84 71.01,-207.54"/>
<text xml:space="preserve" text-anchor="middle" x="185.12" y="-261.8" font-family="Arial" font-size="11.00">alongLinearRepresentation</text>
</g>
<!-- OffsetDistance -->
<g id="node5" class="node">
<title>OffsetDistance</title>
<g id="a_node5"><a xlink:href="../OffsetDistance" xlink:title="&lt;TABLE&gt;">
<polygon fill="lightgray" stroke="none" points="21,-98.88 21,-115.12 101,-115.12 101,-98.88 21,-98.88"/>
<text xml:space="preserve" text-anchor="start" x="22" y="-102.88" font-family="Arial" font-size="12.00">OffsetDistance</text>
<polygon fill="none" stroke="black" points="20,-97.88 20,-116.12 102,-116.12 102,-97.88 20,-97.88"/>
</a>
</g>
</g>
<!-- PointByLinearPosition&#45;&gt;OffsetDistance -->
<g id="edge7" class="edge">
<title>PointByLinearPosition&#45;&gt;OffsetDistance</title>
<path fill="none" stroke="black" d="M266.13,-320.53C267.65,-300.74 266.99,-268.13 250,-247.5 235.05,-229.35 220.51,-241.43 200.25,-229.5 154.6,-202.61 109.9,-159.86 83.92,-132.9"/>
<polygon fill="black" stroke="black" points="86.64,-130.67 77.21,-125.83 81.56,-135.49 86.64,-130.67"/>
<text xml:space="preserve" text-anchor="middle" x="244.12" y="-219.05" font-family="Arial" font-size="11.00">hasOffsetDistance</text>
</g>
<!-- PointLocation -->
<g id="node6" class="node">
<title>PointLocation</title>
<g id="a_node6"><a xlink:href="../PointLocation" xlink:title="&lt;TABLE&gt;">
<polygon fill="lightgray" stroke="none" points="25.25,-25.88 25.25,-42.12 100.75,-42.12 100.75,-25.88 25.25,-25.88"/>
<text xml:space="preserve" text-anchor="start" x="26.25" y="-29.88" font-family="Arial" font-size="12.00">PointLocation</text>
<polygon fill="none" stroke="black" points="24.25,-24.88 24.25,-43.12 101.75,-43.12 101.75,-24.88 24.25,-24.88"/>
</a>
</g>
</g>
<!-- PointByLinearPosition&#45;&gt;PointLocation -->
<g id="edge8" class="edge">
<title>PointByLinearPosition&#45;&gt;PointLocation</title>
<path fill="none" stroke="black" d="M279.02,-320.75C289.64,-307.13 302,-286.91 302,-266.5 302,-266.5 302,-266.5 302,-106 302,-66.89 182.93,-47.62 112.88,-39.67"/>
<polygon fill="black" stroke="black" points="113.49,-36.21 103.17,-38.6 112.73,-43.17 113.49,-36.21"/>
<text xml:space="preserve" text-anchor="middle" x="326" y="-176.3" font-family="Arial" font-size="11.00">basePoint</text>
</g>
<!-- PointByLinearPosition&#45;&gt;PointLocation -->
<g id="edge9" class="edge">
<title>PointByLinearPosition&#45;&gt;PointLocation</title>
<path fill="none" stroke="black" d="M325.36,-325.41C355.74,-315.48 386,-297.75 386,-266.5 386,-266.5 386,-266.5 386,-106 386,-50.79 203.71,-38.46 113.02,-35.75"/>
<polygon fill="black" stroke="black" points="113.24,-32.25 103.15,-35.48 113.06,-39.25 113.24,-32.25"/>
<text xml:space="preserve" text-anchor="middle" x="418.62" y="-176.3" font-family="Arial" font-size="11.00">directionPoint</text>
</g>
<!-- Invis&#45;&gt;LinearByPoints -->
<!-- LinearByPoints&#45;&gt;OffsetDistance -->
<!-- OffsetDistance&#45;&gt;PointLocation -->
</g>
</svg>
