<?xml version="1.0" encoding="UTF-8" standalone="no"?>
<!DOCTYPE svg PUBLIC "-//W3C//DTD SVG 1.1//EN"
 "http://www.w3.org/Graphics/SVG/1.1/DTD/svg11.dtd">
<!-- Generated by graphviz version 14.1.3 (20260303.0454)
 -->
<!-- Pages: 1 -->
<svg width="884pt" height="438pt"
 viewBox="0.00 0.00 884.00 438.00" xmlns="http://www.w3.org/2000/svg" xmlns:xlink="http://www.w3.org/1999/xlink">
<g id="graph0" class="graph" transform="scale(1 1) rotate(0) translate(4 433.5)">
<polygon fill="white" stroke="none" points="-4,4 -4,-433.5 880.25,-433.5 880.25,4 -4,4"/>
<g id="clust3" class="cluster">
<title>cluster_associated</title>
</g>
<!-- LocationThing -->
<g id="node1" class="node">
<title>LocationThing</title>
<g id="a_node1"><a xlink:href="../LocationThing" xlink:title="&lt;TABLE&gt;">
<polygon fill="lightgray" stroke="none" points="336.75,-403.38 336.75,-419.62 415.25,-419.62 415.25,-403.38 336.75,-403.38"/>
<text xml:space="preserve" text-anchor="start" x="337.75" y="-407.38" font-family="Arial" font-size="12.00">LocationThing</text>
<polygon fill="none" stroke="black" points="335.75,-402.38 335.75,-420.62 416.25,-420.62 416.25,-402.38 335.75,-402.38"/>
</a>
</g>
</g>
<!-- PositionConfidenceEllipse -->
<g id="node2" class="node">
<title>PositionConfidenceEllipse</title>
<g id="a_node2"><a xlink:href="../PositionConfidenceEllipse" xlink:title="&lt;TABLE&gt;">
<polygon fill="lightgray" stroke="none" points="304.12,-330.38 304.12,-346.62 447.88,-346.62 447.88,-330.38 304.12,-330.38"/>
<text xml:space="preserve" text-anchor="start" x="305.12" y="-334.38" font-family="Arial" font-size="12.00">PositionConfidenceEllipse</text>
<polygon fill="none" stroke="black" points="303.12,-329.38 303.12,-347.62 448.88,-347.62 448.88,-329.38 303.12,-329.38"/>
</a>
</g>
</g>
<!-- PositionConfidenceEllipse&#45;&gt;LocationThing -->
<g id="edge1" class="edge">
<title>PositionConfidenceEllipse&#45;&gt;LocationThing</title>
<path fill="none" stroke="black" d="M376,-356.21C376,-363.97 376,-373.42 376,-382.24"/>
<polygon fill="none" stroke="black" points="372.5,-382.16 376,-392.16 379.5,-382.16 372.5,-382.16"/>
</g>
<!-- Invis -->
<!-- PositionConfidenceEllipse&#45;&gt;Invis -->
<!-- cdm1_Length -->
<g id="node4" class="node">
<title>cdm1_Length</title>
<g id="a_node4"><a xlink:href="https://w3id.org/citydata/part1/v1/Length" xlink:title="&lt;TABLE&gt;">
<polygon fill="lightgray" stroke="none" points="69.5,-171.88 69.5,-188.12 140.5,-188.12 140.5,-171.88 69.5,-171.88"/>
<text xml:space="preserve" text-anchor="start" x="70.5" y="-175.88" font-family="Arial" font-size="12.00">cdm1:Length</text>
<polygon fill="none" stroke="black" points="68.5,-170.88 68.5,-189.12 141.5,-189.12 141.5,-170.88 68.5,-170.88"/>
</a>
</g>
</g>
<!-- PositionConfidenceEllipse&#45;&gt;cdm1_Length -->
<g id="edge6" class="edge">
<title>PositionConfidenceEllipse&#45;&gt;cdm1_Length</title>
<path fill="none" stroke="black" d="M303.42,-333.76C236.86,-328.74 144.97,-317.25 120.25,-291.5 99.5,-269.89 98.26,-234.05 100.53,-209.07"/>
<polygon fill="black" stroke="black" points="103.99,-209.63 101.67,-199.29 97.03,-208.81 103.99,-209.63"/>
<text xml:space="preserve" text-anchor="middle" x="171.62" y="-261.8" font-family="Arial" font-size="11.00">semiMajorAxisLength</text>
</g>
<!-- PositionConfidenceEllipse&#45;&gt;cdm1_Length -->
<g id="edge7" class="edge">
<title>PositionConfidenceEllipse&#45;&gt;cdm1_Length</title>
<path fill="none" stroke="black" d="M316.32,-320.58C297.03,-313.44 276.26,-303.86 259.25,-291.5 238.75,-276.6 242.42,-263.77 223,-247.5 201.43,-229.43 174.24,-213.72 151.4,-202.11"/>
<polygon fill="black" stroke="black" points="153.12,-199.06 142.6,-197.75 150,-205.33 153.12,-199.06"/>
<text xml:space="preserve" text-anchor="middle" x="310.62" y="-261.8" font-family="Arial" font-size="11.00">semiMinorAxisLength</text>
</g>
<!-- its&#45;core_Bearing -->
<g id="node5" class="node">
<title>its&#45;core_Bearing</title>
<g id="a_node5"><a xlink:href="https://w3id.org/itsdata/core/v1/Bearing" xlink:title="&lt;TABLE&gt;">
<polygon fill="lightgray" stroke="none" points="61,-98.88 61,-115.12 147,-115.12 147,-98.88 61,-98.88"/>
<text xml:space="preserve" text-anchor="start" x="62" y="-102.88" font-family="Arial" font-size="12.00">its&#45;core:Bearing</text>
<polygon fill="none" stroke="black" points="60,-97.88 60,-116.12 148,-116.12 148,-97.88 60,-97.88"/>
</a>
</g>
</g>
<!-- PositionConfidenceEllipse&#45;&gt;its&#45;core_Bearing -->
<g id="edge8" class="edge">
<title>PositionConfidenceEllipse&#45;&gt;its&#45;core_Bearing</title>
<path fill="none" stroke="black" d="M378.54,-320.82C380.58,-300.7 380.58,-267.15 362,-247.5 335.7,-219.68 312.86,-244.78 277.75,-229.5 220.67,-204.67 163.19,-159.63 130.74,-131.91"/>
<polygon fill="black" stroke="black" points="133.27,-129.47 123.42,-125.57 128.69,-134.76 133.27,-129.47"/>
<text xml:space="preserve" text-anchor="middle" x="338.88" y="-219.05" font-family="Arial" font-size="11.00">semiMajorAxisOrientation</text>
</g>
<!-- MeasurementErrorCode -->
<g id="node6" class="node">
<title>MeasurementErrorCode</title>
<g id="a_node6"><a xlink:href="../MeasurementErrorCode" xlink:title="&lt;TABLE&gt;">
<polygon fill="lightgray" stroke="none" points="16.88,-25.88 16.88,-42.12 147.12,-42.12 147.12,-25.88 16.88,-25.88"/>
<text xml:space="preserve" text-anchor="start" x="17.88" y="-29.88" font-family="Arial" font-size="12.00">MeasurementErrorCode</text>
<polygon fill="none" stroke="black" points="15.88,-24.88 15.88,-43.12 148.12,-43.12 148.12,-24.88 15.88,-24.88"/>
</a>
</g>
</g>
<!-- PositionConfidenceEllipse&#45;&gt;MeasurementErrorCode -->
<g id="edge9" class="edge">
<title>PositionConfidenceEllipse&#45;&gt;MeasurementErrorCode</title>
<path fill="none" stroke="black" d="M386.76,-320.75C401.48,-295.48 423.55,-247.25 400,-216 382.54,-192.83 363.7,-209.93 337.25,-198 291.85,-177.52 173.85,-98.08 115.57,-58.16"/>
<polygon fill="black" stroke="black" points="117.89,-55.51 107.67,-52.74 113.93,-61.28 117.89,-55.51"/>
<text xml:space="preserve" text-anchor="middle" x="414.12" y="-176.3" font-family="Arial" font-size="11.00">semiMajorAxisLengthErrorCode</text>
</g>
<!-- PositionConfidenceEllipse&#45;&gt;MeasurementErrorCode -->
<g id="edge10" class="edge">
<title>PositionConfidenceEllipse&#45;&gt;MeasurementErrorCode</title>
<path fill="none" stroke="black" d="M448.51,-326.6C481.37,-317.13 513,-299.45 513,-266.5 513,-266.5 513,-266.5 513,-106 513,-70.56 283.23,-49.02 159.22,-39.98"/>
<polygon fill="black" stroke="black" points="159.66,-36.5 149.44,-39.28 159.16,-43.48 159.66,-36.5"/>
<text xml:space="preserve" text-anchor="middle" x="589.88" y="-176.3" font-family="Arial" font-size="11.00">semiMinorAxisLengthErrorCode</text>
</g>
<!-- PositionConfidenceEllipse&#45;&gt;MeasurementErrorCode -->
<g id="edge11" class="edge">
<title>PositionConfidenceEllipse&#45;&gt;MeasurementErrorCode</title>
<path fill="none" stroke="black" d="M448.57,-336.14C544.91,-332.33 703,-318.2 703,-266.5 703,-266.5 703,-266.5 703,-106 703,-51.83 325.25,-38.97 158.99,-35.93"/>
<polygon fill="black" stroke="black" points="159.44,-32.44 149.38,-35.76 159.32,-39.44 159.44,-32.44"/>
<text xml:space="preserve" text-anchor="middle" x="789.62" y="-176.3" font-family="Arial" font-size="11.00">semiMajorAxisOrientationErrorCode</text>
</g>
<!-- Invis&#45;&gt;cdm1_Length -->
<!-- cdm1_Length&#45;&gt;its&#45;core_Bearing -->
<!-- its&#45;core_Bearing&#45;&gt;MeasurementErrorCode -->
</g>
</svg>
