<?xml version="1.0" encoding="UTF-8" standalone="no"?>
<!DOCTYPE svg PUBLIC "-//W3C//DTD SVG 1.1//EN"
 "http://www.w3.org/Graphics/SVG/1.1/DTD/svg11.dtd">
<!-- Generated by graphviz version 14.1.3 (20260303.0454)
 -->
<!-- Pages: 1 -->
<svg width="238pt" height="132pt"
 viewBox="0.00 0.00 238.00 132.00" xmlns="http://www.w3.org/2000/svg" xmlns:xlink="http://www.w3.org/1999/xlink">
<g id="graph0" class="graph" transform="scale(1 1) rotate(0) translate(4 128)">
<polygon fill="white" stroke="none" points="-4,4 -4,-128 233.62,-128 233.62,4 -4,4"/>
<g id="clust3" class="cluster">
<title>cluster_associated</title>
</g>
<!-- geo_SpatialObject -->
<g id="node1" class="node">
<title>geo_SpatialObject</title>
<g id="a_node1"><a xlink:href="https://w3id.org/citydata/imported/geo/latest/SpatialObject" xlink:title="&lt;TABLE&gt;">
<polygon fill="lightgray" stroke="none" points="1,-97.88 1,-114.12 98.25,-114.12 98.25,-97.88 1,-97.88"/>
<text xml:space="preserve" text-anchor="start" x="2" y="-101.88" font-family="Arial" font-size="12.00">geo:SpatialObject</text>
<polygon fill="none" stroke="black" points="0,-96.88 0,-115.12 99.25,-115.12 99.25,-96.88 0,-96.88"/>
</a>
</g>
</g>
<!-- LocationThing -->
<g id="node2" class="node">
<title>LocationThing</title>
<g id="a_node2"><a xlink:href="../LocationThing" xlink:title="&lt;TABLE&gt;">
<polygon fill="lightgray" stroke="none" points="118.38,-97.88 118.38,-114.12 196.88,-114.12 196.88,-97.88 118.38,-97.88"/>
<text xml:space="preserve" text-anchor="start" x="119.38" y="-101.88" font-family="Arial" font-size="12.00">LocationThing</text>
<polygon fill="none" stroke="black" points="117.38,-96.88 117.38,-115.12 197.88,-115.12 197.88,-96.88 117.38,-96.88"/>
</a>
</g>
</g>
<!-- SpatialObject -->
<g id="node3" class="node">
<title>SpatialObject</title>
<g id="a_node3"><a xlink:href="../SpatialObject" xlink:title="&lt;TABLE&gt;">
<polygon fill="lightgray" stroke="none" points="66.62,-25.88 66.62,-42.12 140.62,-42.12 140.62,-25.88 66.62,-25.88"/>
<text xml:space="preserve" text-anchor="start" x="67.62" y="-29.88" font-family="Arial" font-size="12.00">SpatialObject</text>
<polygon fill="none" stroke="black" points="65.62,-24.88 65.62,-43.12 141.62,-43.12 141.62,-24.88 65.62,-24.88"/>
</a>
</g>
</g>
<!-- SpatialObject&#45;&gt;geo_SpatialObject -->
<g id="edge1" class="edge">
<title>SpatialObject&#45;&gt;geo_SpatialObject</title>
<path fill="none" stroke="black" d="M90.67,-51.79C84.39,-59.93 76.7,-69.9 69.68,-79"/>
<polygon fill="none" stroke="black" points="66.96,-76.8 63.62,-86.86 72.5,-81.08 66.96,-76.8"/>
</g>
<!-- SpatialObject&#45;&gt;LocationThing -->
<g id="edge2" class="edge">
<title>SpatialObject&#45;&gt;LocationThing</title>
<path fill="none" stroke="black" d="M116.58,-51.79C122.86,-59.93 130.55,-69.9 137.57,-79"/>
<polygon fill="none" stroke="black" points="134.75,-81.08 143.63,-86.86 140.29,-76.8 134.75,-81.08"/>
</g>
<!-- Invis -->
</g>
</svg>
